<svg width="24" height="24" viewBox="0 0 24 24" fill="none" xmlns="http://www.w3.org/2000/svg">
<g clip-path="url(#clip0_57_8)">
<path fill-rule="evenodd" clip-rule="evenodd" d="M11.9996 14.121L17.3026 19.425C17.584 19.7064 17.9657 19.8645 18.3636 19.8645C18.7616 19.8645 19.1432 19.7064 19.4246 19.425C19.706 19.1436 19.8641 18.7619 19.8641 18.364C19.8641 17.966 19.706 17.5844 19.4246 17.303L14.1196 12L19.4236 6.69699C19.5629 6.55766 19.6733 6.39226 19.7487 6.21024C19.824 6.02821 19.8628 5.83313 19.8627 5.63613C19.8627 5.43914 19.8238 5.24407 19.7484 5.06209C19.673 4.8801 19.5624 4.71475 19.4231 4.57549C19.2838 4.43622 19.1184 4.32576 18.9364 4.25042C18.7543 4.17507 18.5592 4.13631 18.3623 4.13636C18.1653 4.13641 17.9702 4.17526 17.7882 4.25069C17.6062 4.32612 17.4409 4.43666 17.3016 4.57599L11.9996 9.87899L6.6966 4.57599C6.5583 4.43266 6.39284 4.31831 6.20987 4.23961C6.0269 4.16091 5.83009 4.11944 5.63092 4.11762C5.43176 4.11579 5.23422 4.15365 5.04984 4.22899C4.86546 4.30432 4.69793 4.41562 4.55703 4.55639C4.41612 4.69717 4.30466 4.86459 4.22916 5.0489C4.15365 5.23321 4.1156 5.43071 4.11724 5.62988C4.11887 5.82905 4.16016 6.02589 4.23869 6.20894C4.31721 6.39198 4.43141 6.55755 4.5746 6.69599L9.8796 12L4.5756 17.303C4.29421 17.5844 4.13612 17.966 4.13612 18.364C4.13612 18.7619 4.29421 19.1436 4.5756 19.425C4.857 19.7064 5.23865 19.8645 5.6366 19.8645C6.03456 19.8645 6.41621 19.7064 6.6976 19.425L11.9996 14.12V14.121Z" fill="#848DAC"/>
</g>
<defs>
<clipPath id="clip0_57_8">
<rect width="24" height="24" fill="white"/>
</clipPath>
</defs>
</svg>
