<svg width="36" height="36" viewBox="0 0 36 36" fill="none" xmlns="http://www.w3.org/2000/svg">
<path d="M25.3353 29.6831C24.9978 29.8069 24.7616 30.0769 24.41 30.1866C23.7181 30.3975 23.0572 30.5747 22.4047 30.7238C22.1206 30.7519 21.575 30.6478 21.5835 29.4131L21.5722 29.4188C21.4456 27.1069 20.3656 24.7922 18.56 23.3409C17.4238 22.4269 16.1441 21.69 14.7631 21.2147C12.6144 20.4413 10.2913 20.2838 8.02439 20.4722C6.05001 20.6381 3.97158 21.2091 2.21376 19.9519C2.07314 19.8534 1.89314 19.5356 1.71595 19.5103C1.44876 19.4766 1.44314 19.8872 1.42345 20.0559C1.2547 21.3891 1.34751 22.7475 1.60908 24.0609C2.50908 28.5975 5.28501 33.5306 9.79064 35.2884C12.6988 36.4219 17.5559 36.0113 20.0563 33.5897V33.6009C20.0563 33.6009 20.9788 32.7544 22.4975 32.3663V32.3634C22.7647 32.3128 23.0319 32.2622 23.2991 32.2059C23.7097 32.1216 24.1569 32.0878 24.5788 32.0203C24.7813 31.9894 24.981 31.995 25.175 31.9838C25.9316 31.9444 26.5222 31.995 26.6291 30.9966C26.7022 30.3216 26.1116 29.4103 25.3353 29.6831Z" fill="#CCD6F6"/>
<path d="M28.2096 19.6566C27.892 20.5164 27.4708 21.3343 26.9552 22.0922C26.103 23.3494 24.8655 24.2606 23.7349 25.2534C23.5915 25.3772 23.4509 25.5516 23.4762 25.7569C23.5015 25.9622 23.6646 26.0662 23.8615 26.0831C24.3199 26.1197 24.7249 25.7794 25.0934 25.5544C25.8021 25.1212 26.494 24.6262 27.1015 24.0581C27.3237 23.8556 27.5402 23.6419 27.754 23.4281C28.3755 22.8066 28.9493 22.14 29.4527 21.42C29.9702 20.6747 30.409 19.8675 30.6987 19.0041C30.8449 18.5709 30.9518 18.1266 31.0109 17.6766C30.2009 18.1575 29.3318 18.5569 28.4487 18.8887C28.3755 19.1475 28.3024 19.4062 28.2096 19.6566ZM34.2087 7.26468C33.9584 6.60937 33.6012 5.99624 33.168 5.44218C32.7321 4.88531 32.2202 4.38749 31.6662 3.95156C31.0952 3.49874 30.4793 3.10499 29.838 2.75624C29.1864 2.40604 28.5139 2.09608 27.8243 1.82812C27.1465 1.56374 26.4574 1.33312 25.7599 1.13343C25.1074 0.944993 24.4465 0.781868 23.7827 0.63843C23.1162 0.494993 22.4468 0.385305 21.7718 0.303743C21.1446 0.230618 20.5146 0.129368 19.8846 0.12093C19.7918 0.118118 19.654 0.10968 19.5021 0.10968H19.4543C19.1815 0.115305 18.8834 0.15468 18.7821 0.33468C18.6724 0.531555 18.9199 0.719993 19.1027 0.734055C19.294 0.748118 19.4852 0.753743 19.6737 0.77343C20.284 0.838118 20.8915 0.89718 21.499 0.978743C22.1374 1.05749 22.7618 1.21218 23.3862 1.36124C23.6055 1.41468 23.8249 1.46812 24.0443 1.52437C24.7559 1.71281 25.4618 1.92656 26.148 2.18812C26.8512 2.45531 27.5374 2.76749 28.1899 3.14437C28.8199 3.50718 29.419 3.93187 29.9449 4.43812C30.4512 4.92468 30.8843 5.48999 31.1852 6.12281C31.503 6.78937 31.669 7.51781 31.6859 8.25187V8.38124C31.6859 10.2516 30.7718 11.6044 29.4443 12.5944C28.834 13.05 28.1337 13.4269 27.3968 13.7391C23.8699 15.2241 19.4543 15.2269 19.4543 15.2269C19.4543 15.2269 19.2462 15.2325 18.9087 15.2297C18.754 15.2297 18.5684 15.2269 18.3659 15.2184C16.5546 15.1678 13.1177 14.8725 13.1177 13.3678C13.1177 11.5341 17.674 11.0503 17.674 11.0503C21.2515 10.7972 24.4071 11.5594 26.4434 12.9572C27.259 12.6591 28.0268 12.285 28.6765 11.8153C26.3871 9.8128 22.5846 8.8453 17.674 9.35437C17.674 9.35437 7.99898 10.2009 9.34054 15.4772C10.1815 18.7819 15.9274 19.3219 18.363 19.4006C18.5712 19.4091 18.754 19.4119 18.9087 19.4147C19.2518 19.4175 19.4515 19.4119 19.4515 19.4119C19.4515 19.4119 24.4577 19.4091 28.7243 17.6006C29.5399 17.2575 30.3218 16.8441 31.0418 16.3547C33.2187 14.8809 34.788 12.6956 34.6502 9.44718C34.6221 8.70468 34.4759 7.96218 34.2087 7.26468Z" fill="#848DAC"/>
</svg>
