<svg width="273" height="271" viewBox="0 0 273 271" fill="none" xmlns="http://www.w3.org/2000/svg">
<path d="M109.824 4.66913C106.354 5.54773 100.643 8.44708 98.3586 10.4678C97.2604 11.4343 95.8107 13.2793 95.1078 14.5533C93.9657 16.618 93.7899 17.3648 93.7899 20.4399C93.7899 23.3392 93.9657 24.1739 94.7564 25.3161L95.7228 26.6779L94.6246 28.7865C93.3946 31.2466 93.2189 34.4535 94.2732 35.9471C94.8882 36.8696 94.8443 37.1771 92.7796 41.4383C91.5935 43.8984 88.6062 49.126 86.1462 53.0797C81.4896 60.5038 80.4792 62.4367 79.5128 66.1268C78.3706 70.4319 76.4377 73.1116 74.0655 73.6388C71.5615 74.1659 66.1142 76.7139 63.3027 78.6028C61.5016 79.8329 60.4034 80.3161 60.2276 80.0086C60.0519 79.745 59.7005 80.1843 59.349 81.0629C58.5144 83.479 57.9872 82.864 57.9872 79.4375C57.9872 76.3624 57.9872 76.3185 57.1086 77.1092C56.6254 77.5485 56.23 78.2075 56.274 78.6028C56.274 79.0421 56.4936 78.9103 56.8011 78.2075C57.2843 77.1971 57.3283 77.3728 57.4601 79.8768C57.6797 84.4016 57.2843 84.4894 53.5064 80.7554C49.6845 76.9774 48.5423 74.6492 48.8498 71.2226C49.0695 69.114 50.2995 66.4343 50.8706 66.9615C51.0024 67.1372 51.0903 68.1915 51.0024 69.3337C50.9585 70.5198 51.1342 71.9255 51.3538 72.5405C51.7492 73.507 51.7931 73.507 51.7931 72.0134C51.8371 70.344 52.5839 67.7083 53.1989 67.0054C53.4625 66.7418 53.8578 66.8297 54.2532 67.269C54.8243 67.7961 54.8243 68.1476 54.2532 70.0365C53.9018 71.2226 53.6382 73.0238 53.6382 73.9902C53.6821 75.0006 53.77 75.396 53.8578 74.9127C55.0879 68.8065 55.3514 68.4551 56.274 71.618C56.5815 72.5845 56.9768 73.2434 57.1526 73.1116C57.3283 73.0238 57.8115 73.4631 58.1629 74.122C58.5144 74.7809 58.8219 75.1324 58.8658 74.8249C58.8658 74.5613 58.4265 73.7706 57.8554 73.0677C56.889 71.8816 55.615 68.5429 56.1422 68.5429C56.274 68.5429 56.9768 69.0701 57.7236 69.729L58.9976 70.9591L58.119 69.6412C57.5919 68.8944 56.5815 67.7522 55.8347 67.0493C55.0879 66.3025 54.4728 65.5996 54.4728 65.38C54.4728 64.6332 56.23 65.0725 57.5479 66.1707C59.7005 67.9718 60.623 70.2562 60.7109 73.9024L60.7987 77.1092L60.9305 74.4734L61.1062 71.8377L63.6102 71.7937C64.972 71.7937 67.9593 71.618 70.1558 71.3984L74.2412 71.0469L73.2308 69.3337C71.6494 66.5222 67.9153 62.7003 65.4113 61.2945C63.5663 60.2841 62.512 60.0206 60.4034 60.0206C57.4601 60.0206 56.0543 60.5916 54.6046 62.3049C53.6382 63.4471 53.6382 63.4471 52.7157 62.6124C50.5631 60.6795 45.643 61.9974 42.6118 65.3361L41.0743 67.0054L42.6118 65.6436C45.1597 63.4032 46.2141 62.8321 47.9712 62.8321C50.3874 62.8321 50.1238 63.9303 47.5759 64.8089C46.3898 65.1603 44.984 65.8193 44.369 66.1707C43.6661 66.61 43.5783 66.7418 44.1494 66.5222C44.6326 66.3904 45.5112 66.1268 46.1262 65.995L47.2244 65.7754L46.1262 67.0493C44.1933 69.2458 44.0176 69.3776 43.8419 69.2019C43.7101 69.0701 43.6222 69.2458 43.6222 69.5094C43.6222 69.8169 42.8754 71.2666 41.9968 72.7162C41.1182 74.1659 40.2836 75.7913 40.1518 76.3185C40.02 76.8456 39.5807 77.3728 39.2292 77.5046C38.6581 77.7682 38.5703 77.3728 38.7899 75.0445C38.9217 73.2873 38.8778 72.7602 38.6581 73.5948C38.4824 74.2977 38.3067 76.5381 38.2628 78.5589L38.2189 82.2051L39.4489 81.3704C40.9425 80.36 45.2476 78.515 45.5551 78.7785C45.643 78.9103 45.2037 80.0525 44.5887 81.3265C42.8315 84.753 42.2604 87.0813 41.7332 92.88C41.4697 95.8233 40.9425 99.7769 40.5471 101.666L39.8003 105.18L35.5831 109.354C33.2548 111.682 30.2236 115.196 28.8618 117.129C26.7093 120.248 26.1382 120.775 24.7324 121.039C23.8538 121.171 21.3938 122.093 19.2851 123.06C14.6725 125.124 12.9593 125.212 5.71086 123.719C2.94329 123.148 0.527157 122.752 0.307508 122.884C0.131789 122.972 0 132.285 0 143.575V164.09L1.66933 161.454C4.12939 157.632 7.55591 154.074 10.9385 151.79C13.8379 149.901 23.6342 145.596 24.0735 146.079C24.2053 146.211 24.7324 148.89 25.2596 152.053L26.226 157.764L25.2596 158.423C24.0735 159.214 23.0631 161.366 23.4585 162.333C23.8099 163.299 25.3914 163.168 26.0064 162.113C26.8411 160.795 27.1046 161.015 27.4561 163.299C27.8514 166.111 30.9704 176.961 32.2444 180.124L33.3427 182.76L32.2444 183.858C31.1022 185.001 30.9704 186.275 31.9369 186.582C32.2005 186.67 32.8155 186.362 33.2987 185.835L34.1773 184.913L35.627 187.461C38.6142 192.732 42.6118 195.895 46.258 195.939C49.377 195.939 53.0671 193.172 54.8243 189.525C55.1757 188.691 55.6589 188.032 55.8347 188.032C55.9665 188.032 56.23 189.35 56.3179 190.975C56.4497 192.732 57.2843 196.247 58.3387 199.453C61.0184 207.8 61.1941 211.754 58.8219 212.94C58.1629 213.291 58.0312 213.511 58.4705 213.511C58.8658 213.511 59.5248 213.116 59.9641 212.632C61.853 210.568 61.4137 205.604 58.6462 197.696C56.5375 191.59 56.1861 187.329 57.504 182.98C58.5144 179.553 59.7444 172.481 59.7444 169.889C59.7444 169.01 59.9201 168.263 60.1398 168.263C60.3155 168.263 61.6334 171.251 63.0391 174.897L65.5431 181.486L64.6206 182.497C63.6102 183.551 63.3906 185.572 64.2252 186.099C64.4888 186.275 65.1038 185.923 65.6749 185.22L66.6414 183.99L68.7061 190.228L70.8147 196.466L69.4529 197.872C67.8275 199.541 67.5639 201.65 68.9257 201.65C69.409 201.65 70.1118 201.211 70.4633 200.684C70.8586 200.156 71.254 199.805 71.3858 199.937C71.4736 200.068 72.0887 201.914 72.7037 204.11C73.3626 206.263 74.4609 209.25 75.1637 210.743L76.4816 213.511L75.5591 214.741C74.373 216.366 74.5048 218.519 75.8227 218.695C76.7013 218.826 77.7556 217.333 77.7556 215.927C77.7556 215.576 78.6342 216.147 79.7324 217.245C82.3243 219.749 84.9161 220.759 88.0791 220.408L90.4513 220.188L90.2316 221.33C90.0998 222.033 90.2756 222.868 90.627 223.395C91.2859 224.23 91.3299 224.23 92.2085 223.439C93.2189 222.517 93.3946 220.979 92.6917 219.661C92.3403 219.002 92.5599 218.211 93.746 216.059C94.5367 214.521 95.6789 211.886 96.25 210.216C96.8211 208.503 97.3043 207.053 97.3483 206.965C97.4361 206.922 97.9193 207.141 98.4904 207.537C99.7205 208.415 99.984 208.415 100.335 207.537C100.643 206.79 99.8962 205.208 98.9297 204.461C98.4026 204.066 98.4465 203.407 99.2812 199.629C99.8522 197.257 100.379 195.192 100.467 195.104C100.555 194.973 100.994 195.324 101.478 195.851C102.708 197.125 103.674 197.081 103.674 195.763C103.674 195.061 103.147 194.27 102.268 193.611L100.863 192.513L101.434 189.262C102.444 183.112 102.268 183.551 103.586 184.254C104.245 184.561 105.387 185.001 106.178 185.132C107.452 185.44 107.584 185.616 108.023 188.207C108.682 192.029 108.638 199.497 107.891 203.319C107.189 206.965 107.32 206.746 105.387 207.712C104.597 208.152 103.674 208.898 103.323 209.426C102.752 210.304 102.796 210.436 103.411 210.699C103.762 210.831 104.685 210.524 105.475 209.953C106.749 209.074 106.837 209.03 106.573 209.821C106.442 210.304 106.046 212.501 105.695 214.785C105.036 219.354 105.3 220.979 107.057 223.044L108.155 224.274L107.101 222.736C105.607 220.452 105.783 216.279 107.76 208.02C108.638 204.374 109.473 200.376 109.649 199.102C109.956 196.686 110.22 196.378 111.142 197.477C111.757 198.223 112.724 198.355 113.119 197.696C113.514 197.037 112.153 195.104 111.01 194.665C110.132 194.314 109.956 193.787 109.473 189.438C109.165 186.802 108.77 184.254 108.682 183.771C108.506 183.112 108.814 182.672 110 181.969C111.581 181.047 112.153 179.685 110.966 179.685C110.659 179.685 109.868 180.08 109.253 180.564L108.111 181.442L107.628 178.938C107.32 177.533 106.617 174.941 106.046 173.184C104.728 169.186 104.685 168.527 105.827 169.142C107.145 169.845 107.628 169.669 107.628 168.571C107.628 167.385 106.617 166.33 104.948 165.672C103.411 165.1 103.235 164.178 102.927 154.865L102.708 146.957L103.586 147.748C104.948 148.978 106.046 148.539 106.222 146.738C106.31 145.464 106.046 144.893 104.728 143.531L103.059 141.862L103.147 135.404C103.191 131.846 103.367 127.189 103.498 125.08L103.806 121.215L104.597 122.576C105.563 124.158 107.189 124.422 107.189 122.972C107.189 122.181 107.364 122.093 108.419 122.357C110.439 122.884 114.788 123.455 116.897 123.455H118.918L119.708 131.67L120.499 139.885L119.445 140.544C117.117 142.081 115.974 144.102 116.589 145.64C116.985 146.694 118.918 146.43 120.148 145.112C120.763 144.453 121.246 144.102 121.246 144.366C121.246 147.089 124.541 162.025 126.474 168.263L127.352 171.119L126.078 172.129C125.156 172.876 124.76 173.535 124.76 174.457C124.76 176.127 126.078 176.171 127.352 174.545C127.879 173.93 128.319 173.491 128.407 173.579C128.45 173.667 129.109 175.029 129.856 176.61C136.49 190.404 147.428 192.381 155.116 181.135C155.863 180.08 156.478 179.246 156.522 179.246C156.566 179.246 156.609 181.267 156.653 183.771C156.653 187.461 156.917 189.086 158.059 193.084C159.816 199.014 160.519 203.363 160.212 206.131C159.904 208.459 158.85 210.436 157.752 210.48C157.268 210.48 157.224 210.568 157.62 210.743C158.674 211.139 160.3 209.601 160.827 207.712C161.793 204.11 161.134 198.751 158.806 191.107C157.971 188.427 157.576 185.967 157.4 182.541C157.181 178.235 157.268 177.489 158.059 175.951C159.421 173.227 161.573 166.067 162.628 160.795C163.155 158.16 163.726 156.095 163.946 156.227C164.121 156.358 164.297 156.71 164.297 156.973C164.297 157.281 165.439 160.971 166.845 165.188L169.393 172.876L167.899 174.282C166.801 175.336 166.45 175.951 166.581 176.918C166.757 178.631 168.295 178.807 169.481 177.269L170.403 176.127L171.546 179.949C172.204 182.013 173.171 185.572 173.742 187.768L174.752 191.766L173.786 192.425C171.589 193.962 170.843 195.061 170.974 196.51C171.106 197.696 171.238 197.916 172.204 197.784C172.82 197.74 173.742 197.213 174.269 196.598C174.796 195.983 175.323 195.5 175.411 195.5C175.543 195.5 175.719 196.554 175.895 197.784C176.378 201.299 177.388 204.989 179.058 209.162L180.551 212.984L179.233 214.39C177.608 216.103 177.388 218.475 178.794 219.222C179.541 219.617 179.892 219.485 180.771 218.607C181.386 217.992 181.869 216.981 181.869 216.322C181.869 215.18 182.001 215.268 184.417 217.728C187.975 221.33 190.435 222.517 194.609 222.517H197.947L197.903 224.713C197.903 226.778 197.991 226.91 199.089 227.041C201.154 227.305 202.252 224.625 201.154 222.121C200.715 221.155 200.847 220.759 202.208 218.914C203.482 217.157 207.7 209.206 208.315 207.317C208.403 207.009 208.974 207.273 209.677 207.976C211.17 209.469 211.917 209.294 212.093 207.449C212.181 206.394 211.917 205.735 211.038 204.857L209.852 203.671L211.302 199.278C212.093 196.818 212.927 194.402 213.103 193.83L213.498 192.82L214.641 194.138C215.827 195.588 217.32 195.939 217.716 194.885C218.067 193.962 216.793 191.81 215.519 191.107C214.904 190.799 214.377 190.316 214.377 190.053C214.421 189.35 216.925 180.037 217.189 179.817C217.276 179.685 217.935 179.993 218.638 180.52C219.297 181.003 220.703 181.618 221.713 181.882L223.514 182.321L223.822 186.582C223.998 188.954 224.042 192.557 223.91 194.665C223.69 198.355 221.713 207.053 220.879 208.064C220.659 208.371 219.824 208.723 219.034 208.854C217.145 209.206 215.256 210.699 215.256 211.798C215.256 212.94 216.793 212.896 218.726 211.71C219.649 211.139 220.132 211.051 220 211.402C219.868 211.71 219.341 213.731 218.814 215.927C218.287 218.08 217.364 221.374 216.793 223.176C214.509 230.292 214.289 236.354 216.134 241.406C216.661 242.856 217.584 245.404 218.243 247.117C219.165 249.621 219.341 250.939 219.341 254.146C219.253 259.989 217.452 264.118 214.245 265.568C213.191 266.051 213.103 266.139 213.938 265.963C218.331 264.909 220.791 259.725 220.439 252.389C220.264 248.962 219.956 247.82 218.375 244.13C216.002 238.551 215.387 234.553 216.09 229.062C216.354 226.822 216.793 224.449 217.101 223.747L217.628 222.517L217.76 223.615C218.111 225.943 218.375 226.69 219.473 227.964C220.088 228.755 221.01 229.545 221.494 229.809C221.977 230.072 221.538 229.457 220.571 228.491C217.408 225.328 217.54 222.736 221.625 210.348C223.163 205.604 224.7 200.42 225.008 198.838L225.535 196.027L226.809 197.081C228.522 198.487 229.752 198.487 229.752 197.037C229.752 195.851 228.083 193.962 226.677 193.523C226.062 193.303 225.887 192.425 225.623 187.461C225.447 184.298 225.272 181.091 225.228 180.388C225.14 179.334 225.359 179.026 226.458 178.675C228.039 178.148 229.313 177.137 229.313 176.303C229.313 175.468 227.644 175.6 226.018 176.61L224.613 177.489L224.085 174.062C223.778 172.217 223.163 169.186 222.724 167.385C222.284 165.584 221.801 163.563 221.669 162.904L221.406 161.674L222.943 162.421C226.282 164.002 226.194 160.707 222.812 158.555C221.669 157.852 220.615 156.93 220.439 156.49C219.956 155.216 220.044 142.345 220.615 138.743C221.054 135.755 221.186 135.448 221.669 136.151C223.207 138.303 226.15 136.941 225.623 134.306C225.447 133.559 224.876 132.417 224.305 131.802C223.514 131.011 223.295 130.352 223.427 129.386C223.602 128.199 223.602 128.199 223.031 129.693C222.284 131.582 220.264 135.184 219.693 135.536C218.902 136.019 218.726 134.789 219.253 132.68C219.561 131.494 219.693 130.352 219.517 130.22C219.165 129.869 217.891 130.879 217.891 131.494C217.891 131.758 218.199 131.582 218.55 131.099C218.946 130.572 219.165 130.484 219.209 130.835C219.209 131.802 217.891 136.151 217.496 136.37C217.145 136.59 214.157 132.285 212.839 129.649C211.302 126.618 212.488 119.721 214.685 118.886C215.739 118.447 215.871 118.886 215.343 120.775C215.036 121.698 214.816 123.148 214.816 123.938C214.86 125.344 214.904 125.256 215.651 123.06C216.09 121.786 216.881 120.336 217.364 119.853L218.243 118.974L218.726 119.897C219.165 120.644 219.077 121.083 218.462 122.049C217.276 123.763 216.573 125.564 216.617 126.662C216.661 127.541 216.661 127.541 216.969 126.53C217.54 124.773 218.77 122.576 219.209 122.576C219.473 122.576 219.693 124.202 219.736 126.179C219.78 128.243 219.868 128.99 219.956 127.936C220.088 126.794 220.308 126.179 220.615 126.354C220.879 126.53 220.879 126.311 220.571 125.739C220.308 125.256 220.088 124.114 220.088 123.191C220.088 121.566 220.088 121.566 221.01 122.401C221.845 123.148 221.801 122.928 220.703 120.731C219.385 118.052 219.473 117.393 220.923 118.14C222.021 118.755 223.207 120.863 223.646 123.016C223.91 124.378 223.954 124.422 223.998 123.323C223.998 122.664 223.734 121.39 223.383 120.556C222.636 118.755 222.943 114.098 223.778 114.318C224.042 114.406 225.755 115.064 227.644 115.767L230.982 117.085V119.282C230.939 124.993 235.024 128.551 245.391 131.758C247.851 132.505 250.399 133.559 251.058 134.086L252.288 135.053L251.981 131.977C251.585 128.287 250.268 123.148 249.081 120.819C248.598 119.853 248.203 119.018 248.203 118.93C248.203 118.842 249.081 118.623 250.136 118.491C252.684 118.14 255.978 116.602 260.064 114.01C261.865 112.824 264.018 111.638 264.852 111.33L266.346 110.847L263.622 108.958C254.792 102.984 245.919 102.545 241.262 107.86C240.471 108.695 239.724 109.925 239.593 110.496C239.241 111.989 238.055 112.253 231.729 112.253C227.995 112.253 226.018 112.077 225.008 111.594C223.558 110.979 223.514 110.847 223.778 109.002C223.91 107.948 224.042 106.41 224.042 105.62C224.042 104.785 224.261 104.126 224.481 104.126C224.744 104.126 224.92 104.39 224.92 104.741C224.92 105.795 226.721 107.64 227.776 107.64C229.445 107.64 229.621 105.795 228.083 103.994C227.248 103.072 227.204 103.116 230.367 102.457C234.629 101.622 242.624 97.5365 240.032 97.5365C239.549 97.5365 237.396 96.1308 235.244 94.4175C230.455 90.5956 225.931 88.3113 223.251 88.3113H221.274L221.625 86.4223C221.757 85.4119 222.065 82.7762 222.284 80.5797C222.46 78.3832 222.855 76.1428 223.119 75.6156C223.427 75.1324 223.47 74.6931 223.251 74.6931C221.801 74.6931 213.938 78.2075 213.938 78.8664C213.938 78.9543 215.124 78.4271 216.617 77.6803C218.067 76.9335 219.385 76.4503 219.517 76.5821C219.649 76.7578 218.682 77.9878 217.364 79.3936C214.421 82.5565 213.191 84.1819 214.86 82.6883C215.475 82.1611 216.178 81.7218 216.398 81.7218C216.661 81.7218 217.232 81.4143 217.716 81.019C218.506 80.4039 218.506 80.36 217.54 80.8432C215.695 81.7658 216.046 80.975 218.419 78.9103L220.747 76.8896L221.098 79.8329C221.538 83.7426 221.142 86.2905 219.736 88.8824C218.594 90.991 215.827 93.1436 214.245 93.1436C213.103 93.1436 213.323 92.6164 215.256 90.7274C217.584 88.4431 217.584 87.257 215.256 89.3656C214.289 90.2442 213.323 90.9471 213.103 90.9471C212.883 90.9471 212.4 91.0789 212.005 91.2107C211.478 91.4303 211.302 91.2107 211.302 90.3321C211.302 89.4535 211.609 89.0581 212.488 88.7067C214.157 88.0916 216.442 86.2905 217.057 85.1044C217.452 84.3576 217.276 84.4455 216.178 85.4998C214.597 87.0373 212.752 88.1356 212.356 87.7841C212.224 87.6524 212.488 86.7298 212.971 85.7634C213.586 84.4455 213.674 83.9183 213.279 83.7865C213.015 83.6548 212.752 83.8305 212.752 84.1819C212.752 84.4894 212.4 85.5877 211.917 86.598L211.126 88.4431L210.555 87.1691C210.028 85.9391 210.028 85.983 209.984 88.3552C209.984 91.0349 209.72 91.65 208.798 90.9032C208.007 90.2442 208.051 86.9055 208.886 84.8848C209.457 83.523 209.457 83.3912 208.886 84.094C208.007 85.2362 207.26 89.2778 207.612 90.7714C207.744 91.4742 208.183 92.5285 208.534 93.0557C208.886 93.6268 209.105 94.1539 209.018 94.2418C208.93 94.2857 205.943 95.3401 202.296 96.5701C187.316 101.622 180.551 100.656 170.667 91.9135C164.824 86.7298 155.116 82.9079 142.596 80.7993C140.751 80.4918 139.257 80.0964 139.257 79.9646C139.257 79.8329 140.531 79.0861 142.025 78.3392C143.562 77.5925 146.022 75.967 147.516 74.737C150.152 72.5405 154.545 67.0054 154.062 66.4782C153.886 66.3464 152.656 67.269 151.25 68.5429C147.999 71.5741 143.958 74.5174 141.454 75.7913C138.774 77.1532 135.875 77.6364 127.792 78.2075C120.06 78.7346 116.853 79.5693 111.23 82.6004C109.429 83.5669 107.847 84.3137 107.76 84.1819C107.672 84.094 107.804 83.1276 108.067 82.1172C108.375 81.0629 108.77 77.9 108.946 75.1324C109.121 72.3648 109.429 69.729 109.605 69.3337C109.912 68.5869 109.78 68.5869 108.199 69.1579C105.871 69.9487 101.17 72.3648 100.819 72.892C100.687 73.1555 101.478 72.8041 102.576 72.1891C105.695 70.4758 106.31 71.1787 103.894 73.6827C102.093 75.6156 101.961 75.7913 102.839 75.9231C103.367 76.011 103.982 75.8353 104.289 75.5717C104.641 75.1763 104.509 75.0885 103.674 75.352C102.752 75.6156 102.927 75.3081 104.772 73.4191C105.958 72.1891 107.057 71.1787 107.232 71.1787C107.408 71.1787 107.672 73.0238 107.847 75.2642C108.155 79.7889 107.672 82.5565 106.266 84.0501C105.827 84.5333 105.431 85.1044 105.431 85.2802C105.431 85.8512 102.093 87.872 101.126 87.872C99.7644 87.872 99.9401 87.257 101.653 85.983C102.488 85.3241 103.367 84.1819 103.63 83.4351L104.113 82.0733L102.137 83.8744C101.082 84.8409 99.984 85.6755 99.7644 85.6755C99.5447 85.6755 99.0615 85.8073 98.6661 85.9391C97.3922 86.4223 97.7875 84.138 99.1054 83.523C100.819 82.7762 103.191 80.8432 103.762 79.7889C104.069 79.2618 103.367 79.6572 102.137 80.7554C98.5783 83.8744 97.9633 82.9519 100.643 78.4271C101.741 76.5821 101.741 76.4503 100.863 77.5046C100.116 78.3832 99.7644 78.5589 99.5887 78.1635C99.4569 77.8121 99.3251 78.1196 99.3251 78.7785C99.2812 80.3161 98.0072 82.8201 97.524 82.3369C97.3483 82.1172 97.0847 81.5461 96.9529 81.0629C96.8211 80.5797 96.7332 81.5461 96.6893 83.1715C96.6454 85.8073 96.5575 86.1587 95.8986 86.0269C95.2396 85.8952 95.1078 85.368 95.1078 82.7322C95.1078 80.5797 94.976 79.8329 94.7125 80.3161C93.9657 81.634 94.1414 86.2466 95.02 87.5645C95.4153 88.1795 95.7668 88.7945 95.7668 88.8824C95.7668 89.4095 91.3738 89.761 81.0503 90.0685C71.0343 90.3321 69.2332 90.5078 66.6414 91.3425C64.972 91.8696 63.5224 92.221 63.4345 92.1332C63.0831 91.8257 66.9928 86.8616 69.4529 84.4894C70.7708 83.2594 73.7141 80.975 75.9984 79.3936C81.1821 75.9231 82.6757 73.9902 84.1254 69.0701C84.7843 66.7418 87.3762 60.9431 90.6709 54.2658C93.6581 48.2035 96.5136 42.3169 96.9529 41.1747C97.6997 39.2418 97.8315 39.11 98.8419 39.4175C100.775 40.0325 106.002 39.769 107.452 39.0222C110.395 37.4407 113.866 34.102 117.424 29.3576C119.489 26.634 121.729 24.0861 122.344 23.6907L123.53 22.9878L120.543 22.241C118.874 21.8017 115.843 21.2746 113.822 21.0988C111.801 20.8792 110.088 20.6595 110 20.5717C109.956 20.4838 110.264 19.2977 110.703 17.9359C111.142 16.5741 111.801 13.4551 112.153 11.0389C112.548 8.6228 113.119 6.03094 113.47 5.28415C114.129 4.01016 114.129 3.96625 113.207 4.01016C112.68 4.01016 111.142 4.31769 109.824 4.66913ZM100.907 10.6875C100.555 11.2146 100.116 12.3129 99.984 13.0597C99.7205 14.2019 98.4026 16.0469 98.4026 15.3001C98.4026 14.5972 99.5887 11.9175 100.335 10.8632C101.39 9.41354 101.829 9.28174 100.907 10.6875ZM106.266 12.7083C106.705 12.9718 106.486 13.3233 105.387 14.2019C104.553 14.7729 103.411 15.4319 102.796 15.6076L101.697 15.9591L102.576 14.9047C103.542 13.7186 105.08 12.3129 105.431 12.3129C105.563 12.3129 105.915 12.4886 106.266 12.7083ZM116.238 21.9774C116.941 22.1532 117.248 22.3728 116.985 22.3728C116.677 22.4167 116.458 22.6364 116.546 22.9439C116.589 23.2514 116.018 23.515 115.184 23.6028C113.954 23.6907 107.672 25.4479 105.475 26.2825C104.377 26.6779 105.387 25.5357 107.276 24.13C108.287 23.4271 108.902 22.856 108.638 22.856C108.067 22.856 104.465 25.975 104.728 26.2825C104.86 26.4143 104.509 26.7658 103.894 27.0733C103.323 27.3808 102.224 27.9519 101.522 28.3912C99.6326 29.4894 99.4129 28.9183 100.775 26.7218L101.961 24.8329L100.731 26.1947C100.072 26.8976 98.8419 28.4351 98.0951 29.5773C95.4593 33.3992 94.0975 31.2027 96.6454 27.249C99.4129 22.9439 104.289 20.967 110.966 21.3624C113.163 21.4942 115.535 21.7578 116.238 21.9774ZM118.61 23.9103C118.61 24.6571 115.579 29.7969 113.69 32.257C110.791 36.0789 108.375 37.3968 103.894 37.7043C101.653 37.8361 100.599 37.7043 99.984 37.221C98.7979 36.3425 99.369 35.7714 101.873 35.4199C104.157 35.1124 106.749 34.0142 106.749 33.3992C106.749 33.1356 106.266 33.1795 105.607 33.3992C103.894 34.0581 99.5887 33.9263 98.5783 33.2234C97.7875 32.6084 97.7875 32.5206 98.4904 31.8177C99.1054 31.1587 100.072 31.0269 103.323 30.983C105.563 30.9391 107.979 30.7194 108.682 30.4119C110.351 29.6651 109.956 29.3576 108.023 29.8848C107.232 30.1484 105.3 30.3241 103.806 30.3241C101.609 30.3241 101.126 30.1923 101.302 29.7091C101.697 28.6987 107.145 26.1068 110.923 25.0964C114.964 24.0421 118.61 23.471 118.61 23.9103ZM66.7732 63.3592C67.3003 63.7107 67.2564 63.7107 66.6414 63.5349C66.2021 63.4032 65.3235 63.2714 64.7524 63.2714C64.1813 63.2714 63.6981 63.0517 63.6981 62.8321C63.6981 62.3488 65.6749 62.7003 66.7732 63.3592ZM65.4992 66.3025L66.5535 67.1811L65.4113 67.0493C64.0935 66.9175 63.2588 66.4782 63.2588 65.8632C63.2588 65.2043 64.401 65.4239 65.4992 66.3025ZM47.2244 69.0701C47.0487 70.1244 46.6094 71.5302 46.258 72.2769C45.6869 73.4631 45.7308 73.507 46.3019 72.7602C46.9609 71.9695 47.0048 71.9695 47.4441 73.1116C48.5423 76.011 48.4984 76.2306 46.6973 77.0214C44.6326 77.9 40.7668 79.0861 40.1957 79.0421C39.6246 79.0421 39.8442 78.0757 40.9864 75.352L41.9529 73.1555L42.2165 74.4734C42.48 75.7035 42.524 75.6595 42.5679 74.0341C42.5679 73.0677 42.9193 71.7498 43.3586 71.1787C44.369 69.5972 46.6534 67.225 47.1366 67.225C47.3562 67.225 47.4002 68.0597 47.2244 69.0701ZM54.6925 83.7426C55.3075 84.5773 55.0879 84.8848 50.4313 89.5853L45.5551 94.5054L45.8187 90.6396C46.0383 86.7738 47.3123 82.4686 49.0695 79.4814L49.8602 78.2075L51.9689 80.4918C53.111 81.7658 54.3411 83.2155 54.6925 83.7426ZM143.211 85.4998C147.208 86.3345 150.635 87.2131 150.855 87.4327C151.074 87.6524 150.415 88.2234 149.405 88.7067C148.439 89.2338 147.604 89.761 147.604 89.8488C147.604 89.9806 148.439 89.6731 149.449 89.146C152.085 87.7841 153.446 87.4766 154.018 88.0477C154.369 88.3992 154.237 88.7067 153.534 89.1899C151.689 90.4199 147.252 94.8568 146.198 96.5262L145.188 98.1955L144.968 96.6579L144.704 95.1204L144.441 96.4383C144.265 97.1412 144.046 98.503 143.87 99.3816C143.738 100.392 143.387 101.051 142.991 101.051C142.025 101.051 141.761 98.4151 142.508 96.3065C143.299 94.11 142.991 93.8464 142.069 95.999C141.102 98.3712 141.278 102.017 142.42 103.511C142.947 104.214 143.606 104.961 143.87 105.136C144.177 105.4 144.089 105.576 143.694 105.751C143.387 105.883 139.828 108.211 135.787 110.891C128.846 115.592 124.585 117.744 121.158 118.403L119.621 118.711L119.181 112.604C118.962 109.266 118.786 106.498 118.83 106.41C118.874 106.366 119.708 107.113 120.719 108.08C123.75 110.935 127.879 111.023 125.815 108.211C124.716 106.718 123.047 105.883 120.719 105.532C119.752 105.444 118.874 105.092 118.786 104.785C118.654 104.477 118.391 100.787 118.215 96.614L117.863 88.9702V96.6579C117.819 100.875 117.951 106.981 118.127 110.188L118.391 116.075L116.238 117.612L114.085 119.15L111.625 118.623C108.77 118.008 103.674 115.811 103.674 115.196C103.674 114.977 103.411 114.801 103.147 114.801C102.839 114.845 100.863 114.318 98.754 113.615C95.02 112.429 94.8882 112.341 94.8003 110.979L94.7564 109.617L94.5807 111.023L94.405 112.429L92.1206 112.121C89.0455 111.726 79.9081 111.726 74.2412 112.165L69.6286 112.517L72.7476 109.31C74.4609 107.553 76.5695 104.873 77.4481 103.423C79.2931 100.348 78.9856 100.48 86.7612 99.9087L90.7149 99.6452L92.1645 101.446C94.0096 103.731 96.6014 105.532 101.126 107.509C103.147 108.387 105.3 109.485 106.002 109.969L107.189 110.759L107.145 107.113C107.101 104.346 107.013 103.906 106.793 105.224L106.486 106.981L104.816 103.687C103.85 101.886 103.015 100.656 102.883 101.007C102.796 101.314 102.927 101.71 103.191 101.886C103.674 102.193 105.915 107.289 105.651 107.553C105.343 107.86 97.8315 105.268 96.5136 104.39C94.3171 102.896 92.6038 100.084 92.3403 97.6244C92.0767 94.5932 92.8674 94.3297 94.0535 97.0533C94.5807 98.2833 95.2396 99.5134 95.5911 99.7769C96.3818 100.436 96.3818 99.8209 95.5471 97.844C94.8003 96.0429 94.7125 94.9447 95.2396 94.11C95.8107 93.2754 97.0847 93.9782 97.0847 95.0765C97.0847 96.4822 98.2708 100.26 99.0176 101.271C99.5008 101.886 99.4129 101.446 98.8419 99.8209C98.3586 98.5469 97.9633 97.0094 97.9633 96.3504C97.9633 95.1643 97.9633 95.1643 99.984 97.0972C101.126 98.1955 101.917 98.8105 101.741 98.503C101.565 98.2394 101.609 97.9758 101.785 97.9758C102.005 97.9758 102.444 98.2394 102.796 98.503C103.323 98.9862 103.323 98.9423 102.839 98.2833C102.532 97.888 102.005 97.5365 101.741 97.5365C101.082 97.5365 98.139 94.5493 98.4904 94.2418C98.6222 94.11 99.2372 94.1979 99.8962 94.4615C100.555 94.6811 100.994 94.725 100.819 94.5054C100.687 94.2857 99.5887 93.7586 98.4026 93.3632C96.0304 92.5725 95.3275 91.9135 96.25 91.3425C96.9968 90.9032 98.4904 91.2546 100.599 92.265C102.444 93.2314 103.411 94.1979 104.553 96.4822C105.212 97.7562 105.387 97.888 105.168 97.0094C104.948 95.9551 105.124 95.7354 107.276 94.6372C108.55 93.9782 112.196 91.8257 115.359 89.8049C118.522 87.7841 121.29 86.1148 121.51 86.1148C121.773 86.1148 121.861 86.7738 121.773 87.5645C121.554 89.4974 123.047 93.8464 125.112 97.1851C126.034 98.7226 127.001 100.524 127.264 101.271L127.704 102.588L129.153 100.612C133.371 94.8568 134.513 89.2778 132.404 84.1819C132.097 83.3912 132.228 83.3472 134.03 83.6548C135.084 83.8305 139.213 84.6651 143.211 85.4998ZM156.653 89.2778C156.522 90.0685 156.302 91.8257 156.17 93.1436C155.643 98.0198 154.369 100.348 151.118 102.413C147.955 104.434 145.451 103.511 148.526 101.446C150.327 100.26 151.953 98.4151 151.206 98.4151C150.986 98.4151 150.547 98.7226 150.196 99.118C149.361 100.128 147.384 101.051 146.066 101.051C144.221 101.051 144.748 99.3377 146.857 98.6348C148.79 97.9758 152.173 95.8233 151.865 95.4718C151.733 95.3401 150.943 95.7354 150.152 96.3504C148.57 97.5805 146.286 98.3273 146.286 97.6683C146.286 96.3065 151.514 90.9032 154.896 88.7506C156.697 87.6084 156.917 87.6963 156.653 89.2778ZM131.789 89.9806C131.789 90.2881 131.613 90.4199 131.35 90.2881C131.13 90.1563 130.911 89.5853 130.911 89.0581C130.911 88.2674 130.998 88.2234 131.35 88.7506C131.569 89.102 131.789 89.6731 131.789 89.9806ZM161.573 91.1228C163.199 91.9575 166.186 93.9782 168.251 95.6476C173.566 99.9527 174.401 100.48 177.959 101.973C180.946 103.247 181.781 103.379 189.996 103.906C197.947 104.434 199.133 104.609 202.692 105.883C206.645 107.289 208.886 108.519 211.873 110.803C213.411 112.033 213.498 112.209 213.498 114.669C213.498 116.69 213.279 117.612 212.4 118.886C210.204 122.093 210.511 126.398 213.323 132.197C214.685 135.009 215.08 136.634 215.958 142.345C216.925 148.671 216.925 149.198 216.222 149.593C214.465 150.648 213.015 152.493 213.147 153.415C213.323 154.865 214.992 154.953 216.354 153.591C217.013 152.932 217.54 152.668 217.716 152.976C218.287 153.898 218.419 161.674 217.935 165.232C217.101 171.382 217.189 171.163 214.992 171.997C213.059 172.7 212.181 173.711 212.181 175.029C212.181 175.907 213.938 175.951 215.08 175.072C215.519 174.721 216.046 174.414 216.178 174.414C216.881 174.37 211.961 192.469 211.082 193.128C210.687 193.391 209.677 193.743 208.754 193.918C206.03 194.314 204.01 197.257 206.382 197.257C206.821 197.257 207.875 196.862 208.798 196.422C209.677 195.983 210.423 195.763 210.423 195.939C210.423 197.301 204.888 210.787 203.043 213.906L201.901 215.883L201.374 214.565C200.056 211.402 197.552 210.831 197.332 213.643C197.2 215.092 197.42 215.532 198.826 216.806C200.451 218.299 200.451 218.343 199.617 219.266C197.684 221.462 194.301 221.945 191.138 220.496C189.117 219.617 185.383 216.806 185.383 216.191C185.383 216.015 186.526 215.839 187.931 215.839C192.149 215.839 193.862 214.17 190.479 213.335C188.942 212.94 186.877 213.247 184.417 214.17C183.011 214.697 177.915 202.309 177.915 198.399C177.915 197.608 178.003 197.652 179.145 198.707C180.99 200.508 184.505 201.211 184.505 199.849C184.505 198.707 181.913 196.774 179.673 196.247C177.652 195.719 177.212 195.456 177.125 194.577C177.037 194.006 176.29 190.887 175.455 187.636C174.621 184.386 173.962 181.53 173.962 181.354C173.962 181.135 174.401 181.267 174.928 181.618C176.378 182.672 177.476 182.497 177.476 181.311C177.476 179.993 176.07 178.499 174.05 177.664L172.424 177.005L168.163 164.31C165.615 156.71 164.034 151.263 164.165 150.691C164.429 149.769 164.429 149.769 165.351 150.604C166.669 151.834 168.031 152.449 169.305 152.449C171.809 152.449 169.569 149.681 166.45 148.89L164.209 148.319L164.473 146.342C164.605 145.288 164.736 143.311 164.736 141.949V139.533L165.966 140.939C166.625 141.73 167.636 142.389 168.251 142.477C169.217 142.564 169.349 142.389 169.481 141.115C169.613 139.885 169.349 139.402 167.855 138.04C166.713 136.985 166.054 135.975 166.01 135.316C166.01 134.701 165.703 133.427 165.351 132.461C164.78 130.747 164.78 131.099 165.351 134.438C165.615 135.887 165.615 135.931 164.956 135.096C162.101 131.362 160.036 128.331 160.256 128.112C160.387 127.98 160.212 127.848 159.816 127.848C159.465 127.848 158.718 127.321 158.103 126.706L157.049 125.52L158.454 125.739C160.431 126.003 159.86 125.564 157.181 124.773C154.852 124.07 154.018 123.235 155.379 122.928C156.741 122.62 159.157 123.455 161.002 124.861C161.969 125.608 162.408 125.871 162.013 125.432C161.31 124.685 161.354 124.597 162.32 123.807C162.891 123.367 163.462 123.016 163.594 123.016C163.726 123.016 163.858 123.938 163.858 125.037C163.858 126.75 163.726 127.013 163.111 126.794C162.452 126.53 162.408 126.574 163.067 127.277C163.419 127.716 163.946 128.639 164.209 129.386C164.649 130.616 164.693 130.572 164.78 128.287C164.824 126.969 164.912 125.52 164.868 125.08C164.868 124.07 165.483 124.114 166.054 125.212C166.318 125.695 167.021 126.223 167.636 126.354C168.427 126.574 169.042 127.321 169.964 129.342C171.546 132.768 174.225 136.107 177.388 138.611C178.75 139.709 179.98 140.588 180.156 140.588C180.288 140.588 180.375 139.929 180.419 139.138C180.419 138.347 180.99 135.536 181.649 132.944C182.835 128.287 183.011 123.763 182.133 121.039C181.869 120.248 182.352 119.985 187.316 118.491C190.347 117.525 193.027 116.91 193.247 117.085C194.565 117.876 193.379 116.295 190.787 113.703C187.975 110.979 183.978 108.08 183.011 108.08C182.792 108.08 183.758 108.783 185.208 109.661C186.613 110.496 188.327 111.726 188.986 112.341C190.216 113.527 190.216 114.493 188.942 113.966C187.185 113.263 183.846 112.033 183.538 112.033C183.363 112.033 183.802 112.648 184.505 113.439C185.208 114.186 185.954 114.713 186.086 114.537C186.262 114.362 186.174 114.23 185.911 114.23C185.603 114.23 185.383 114.01 185.383 113.791C185.383 113.044 186.482 113.307 188.678 114.537L190.787 115.68L187.097 117.393C181.298 120.116 177.388 120.072 174.181 117.261C172.073 115.372 172.073 113.791 174.181 115.284C175.28 116.031 178.223 116.866 178.53 116.514C178.662 116.382 178.047 115.943 177.125 115.548C175.411 114.757 173.522 113.132 173.522 112.517C173.522 111.638 175.06 111.594 176.158 112.473C177.608 113.615 181.254 115.548 181.957 115.548C182.264 115.504 181.518 115.021 180.288 114.449C179.058 113.834 177.652 112.912 177.212 112.385L176.378 111.462L179.673 111.682C181.518 111.814 182.484 111.77 181.869 111.594C181.254 111.418 179.98 111.199 179.014 111.199C176.29 111.111 175.675 110.496 177.52 109.705C179.76 108.695 178.267 108.826 175.719 109.837C173.171 110.847 172.073 110.935 172.292 110.188C172.732 108.914 174.972 107.86 177.827 107.596L180.771 107.289L177.432 107.377C171.853 107.553 168.866 110.188 170.008 113.966C170.316 114.977 170.755 116.031 170.974 116.295C171.853 117.393 170.316 118.359 166.318 119.282C165.088 119.545 165.088 119.501 165.351 118.052C165.527 117.085 165.308 115.504 164.693 113.527C162.979 107.948 160.475 104.038 157.137 101.798C156.17 101.139 155.248 100.524 155.204 100.436C155.116 100.348 155.511 98.8105 156.126 97.0533C156.697 95.2522 157.356 92.88 157.488 91.6939C157.664 90.5517 157.971 89.6292 158.191 89.6292C158.411 89.6292 159.948 90.2881 161.573 91.1228ZM128.582 93.1436C127.66 94.4615 127.352 93.6268 127.967 91.606C128.45 89.9806 128.45 89.9806 128.846 91.0789C129.109 91.9135 129.022 92.5285 128.582 93.1436ZM132.097 92.5725C131.965 93.0118 131.877 92.7482 131.877 92.0453C131.877 91.2985 131.965 90.991 132.097 91.2546C132.185 91.5621 132.185 92.1771 132.097 92.5725ZM213.411 98.9423L213.279 103.028L210.863 102.896C209.545 102.808 206.206 102.457 203.482 102.105C200.759 101.754 198.343 101.49 198.079 101.49C197.859 101.49 197.684 101.271 197.684 101.051C197.684 100.787 198.035 100.612 198.474 100.612C199.177 100.568 200.627 99.9966 208.447 96.4822C213.63 94.1539 213.542 94.11 213.411 98.9423ZM215.08 97.7562C216.09 99.9527 220.527 102.808 222.812 102.808C223.69 102.808 223.69 102.94 223.383 106.41C223.207 108.431 222.987 110.144 222.899 110.276C222.768 110.364 221.362 109.046 219.693 107.333C218.067 105.576 216.222 104.038 215.607 103.906C214.641 103.643 214.465 103.291 214.201 101.358C213.894 98.6787 213.85 96.2186 214.157 96.2186C214.245 96.2186 214.685 96.9215 215.08 97.7562ZM230.631 96.614C230.631 97.3169 228.083 98.0637 226.721 97.7562C224.129 97.1851 225.359 96.3944 229.006 96.2626C229.884 96.2626 230.631 96.3944 230.631 96.614ZM226.326 100.875L228.654 102.017L226.897 101.71C225.931 101.534 224.788 101.051 224.349 100.568C223.339 99.4695 223.47 99.5134 226.326 100.875ZM75.9984 101.314C75.9984 101.93 72.8355 105.839 70.9904 107.553C69.9361 108.519 68.0911 109.837 66.905 110.408C64.2692 111.726 56.274 114.406 55.9225 114.098C55.4393 113.571 62.7316 106.85 65.7628 105.049C69.3211 102.94 75.9984 100.524 75.9984 101.314ZM157.883 104.741C160.343 105.795 160.124 106.41 157.62 105.4C156.346 104.917 155.204 104.39 155.116 104.302C154.677 103.906 156.522 104.17 157.883 104.741ZM253.694 105.883C253.826 106.147 253.518 106.322 252.947 106.322C252.376 106.366 251.454 106.63 250.839 106.981C249.389 107.816 248.862 107.816 249.697 106.938C250.092 106.542 250.97 106.059 251.629 105.883C253.255 105.4 253.387 105.4 253.694 105.883ZM213.323 106.498C213.454 106.85 213.498 107.553 213.411 108.036C213.279 108.87 213.147 108.826 211.522 107.421L209.764 105.927L211.434 105.883C212.488 105.883 213.191 106.103 213.323 106.498ZM218.946 110.232C222.109 113.263 222.284 113.527 222.284 115.372C222.284 116.426 222.197 117.305 222.109 117.305C222.021 117.305 221.098 116.822 220.088 116.251C217.496 114.801 214.948 111.33 214.553 108.739C214.157 105.927 214.772 106.147 218.946 110.232ZM145.144 108.563C145.539 110.628 148.263 113.088 151.47 114.23C153.095 114.845 154.193 115.46 154.193 115.855C154.193 116.207 154.062 116.426 153.842 116.338C149.581 114.493 150.152 114.493 140.795 115.987C136.05 116.734 132.053 117.305 131.965 117.173C131.833 117.085 132.887 116.163 134.293 115.108C135.699 114.054 137.544 112.604 138.379 111.814C140.355 109.969 144.046 107.201 144.529 107.201C144.704 107.201 144.968 107.816 145.144 108.563ZM157.62 110.144L157.708 111.374L156.609 110.057C155.994 109.31 155.248 108.343 154.984 107.904C154.545 107.113 154.589 107.113 155.994 107.992C157.049 108.607 157.532 109.31 157.62 110.144ZM254.617 110.057C255.539 110.54 255.671 110.715 255.1 110.715C254.661 110.715 254.441 110.935 254.573 111.155C254.88 111.682 253.211 111.374 251.278 110.584L250.18 110.144L251.498 109.837C252.244 109.661 252.947 109.485 253.079 109.441C253.255 109.441 253.958 109.705 254.617 110.057ZM241.13 113.615C245.304 114.845 248.335 118.667 250.136 124.949C250.883 127.453 250.795 129.605 250.004 129.605C249.784 129.605 249.697 130.045 249.828 130.528C250.048 131.362 249.96 131.406 249.038 131.143C248.466 130.923 247.412 130.747 246.665 130.66C244.776 130.528 240.383 129.21 238.275 128.199C235.331 126.75 232.125 121.083 233.003 118.842C233.399 117.788 233.97 118.052 234.629 119.589C235.244 121.039 237.528 123.894 238.055 123.894C238.275 123.894 237.835 122.796 237.133 121.434C235.551 118.227 235.463 116.426 236.957 116.426C237.879 116.426 238.143 116.822 238.934 119.37C239.417 121.083 240.383 123.016 241.174 123.894L242.492 125.432L241.174 123.235C239.681 120.731 239.022 118.184 239.812 118.184C241.35 118.184 246.534 123.894 248.774 128.068C249.169 128.814 249.477 129.166 249.521 128.902C249.521 127.892 245.743 122.708 242.843 119.809C241.218 118.184 239.856 116.734 239.856 116.602C239.856 116.426 240.603 116.426 241.526 116.558C243.942 116.953 242.36 116.119 239.593 115.548C238.363 115.284 236.957 114.801 236.518 114.449C235.727 113.878 235.727 113.834 236.781 113.395C238.275 112.824 238.494 112.824 241.13 113.615ZM215.915 115.987C215.519 116.602 214.816 115.767 214.816 114.669C214.816 114.142 214.948 114.142 215.519 114.757C215.915 115.152 216.09 115.68 215.915 115.987ZM159.026 115.987C163.506 116.69 163.858 116.822 163.858 117.7C163.858 118.799 161.573 119.941 160.08 119.677C158.542 119.414 155.511 117.832 155.511 117.349C155.511 117.129 155.379 116.646 155.248 116.251C154.94 115.416 155.204 115.416 159.026 115.987ZM93.1749 116.822C94.8882 117.173 94.5807 115.811 95.9864 129.605C96.909 138.699 97.7436 144.366 99.2812 152.097L100.599 158.555L99.2372 159.873C98.4026 160.751 97.9633 161.586 98.0511 162.201C98.2268 163.519 99.0615 163.651 100.116 162.596C100.643 162.069 101.126 161.674 101.214 161.674C101.697 161.674 102.356 166.111 102.356 169.669C102.356 175.688 102.049 176.874 100.511 177.533C99.0615 178.104 98.2268 179.422 98.5783 180.432C98.8419 181.003 98.9736 181.003 99.984 180.344C100.599 179.949 101.214 179.729 101.39 179.905C101.653 180.168 99.984 191.195 99.2372 193.874C98.9297 195.061 98.5343 195.5 97.5679 195.719C96.2939 195.983 94.4489 197.433 94.4489 198.136C94.4489 198.926 95.2396 198.97 96.8211 198.18C97.6997 197.74 98.4026 197.433 98.4026 197.564C98.4026 198.795 95.2836 209.03 93.6142 213.247L93.131 214.477L92.1206 213.028C90.8466 211.139 89.4409 211.007 89.2652 212.764C89.1334 213.687 89.4848 214.302 90.4952 215.268C91.857 216.542 91.901 216.63 91.1981 217.64C89.5288 220.232 85.0479 220.013 81.8411 217.245L80.1717 215.795L82.2364 215.488C83.3786 215.312 84.6526 214.917 85.0919 214.565C85.7947 214.038 85.7947 213.906 85.2236 213.511C84.3011 212.896 82.1046 212.984 80.8307 213.731C80.2157 214.082 79.5128 214.346 79.2492 214.39C78.5463 214.39 75.3834 208.152 74.2851 204.549C73.758 202.924 73.3626 201.474 73.3626 201.342C73.3626 201.255 73.9337 201.562 74.6366 202.045C75.9545 203.012 78.6342 203.319 78.6342 202.529C78.6342 202.265 78.2388 201.694 77.7556 201.211C76.9649 200.42 76.2181 200.112 74.0655 199.805C73.0112 199.629 72.8355 199.278 71.254 193.962C70.5511 191.546 69.8043 189.218 69.6286 188.822C69.365 188.12 69.4968 188.076 70.6829 188.295C71.8251 188.559 72.0447 188.471 72.0447 187.724C72.0447 186.758 71.1222 185.791 69.2332 184.913C68.135 184.386 67.52 183.112 64.0935 174.414C61.9409 169.01 60.1837 164.09 60.1837 163.519V162.465L61.5455 163.607C62.9952 164.837 65.016 165.144 65.016 164.134C65.016 163.255 63.3906 162.157 61.6334 161.85L60.1837 161.586V158.028C60.1837 154.645 60.2276 154.513 60.8866 155.436C61.7212 156.666 63.6981 156.754 63.6981 155.568C63.6981 154.03 63.1709 153.283 61.4577 152.405C59.9641 151.658 59.7444 151.35 59.7444 150.076C59.7444 149.286 59.6126 147.045 59.4808 145.156C59.1733 141.73 59.1733 141.686 60.0519 142.433C61.238 143.487 62.8195 143.487 62.8195 142.389C62.8195 140.851 62.2923 140.104 60.623 139.27L58.9537 138.435L58.778 133.471C58.6901 130.747 58.6462 128.463 58.6901 128.375C58.8219 128.112 66.4217 133.779 66.6414 134.306C67.0807 135.36 67.5639 134.438 68.0911 131.538C68.9257 127.189 68.4864 123.06 66.861 119.897C66.1142 118.491 65.5431 117.305 65.5871 117.261C65.631 117.261 69.3211 116.953 73.8019 116.646C81.5775 116.075 89.9681 116.163 93.1749 116.822ZM30.6629 119.062C29.9161 122.269 29.389 123.104 29.6526 120.688C29.8283 118.755 30.619 116.602 30.9704 116.953C31.0583 117.041 30.9265 117.964 30.6629 119.062ZM99.7205 118.667L103.235 119.985L102.971 126.662L102.708 133.339L100.775 135.009C99.7205 135.931 98.8419 136.985 98.8419 137.337C98.8419 137.688 98.6661 137.952 98.4904 137.952C98.0951 137.952 97.5679 134.877 96.4257 125.652C96.0743 122.884 95.6789 119.853 95.5471 118.93C95.4153 117.964 95.5032 117.305 95.7668 117.305C96.0304 117.305 97.7875 117.92 99.7205 118.667ZM36.901 118.227C36.901 118.447 36.7252 118.579 36.5056 118.403C36.2859 118.271 35.9784 118.359 35.8027 118.623C35.6709 118.842 35.7588 119.062 35.9784 119.062C36.901 119.062 36.4617 119.853 34.8802 121.039L33.2548 122.269L33.5623 120.995C34.0016 119.15 36.901 116.734 36.901 118.227ZM153.271 119.194C155.511 120.688 155.687 121.961 153.666 122.269C152.568 122.445 151.733 122.181 150.24 121.259C149.141 120.556 147.384 119.633 146.286 119.238C144.441 118.491 144.353 118.403 145.407 118.096C147.692 117.437 151.382 117.964 153.271 119.194ZM143.826 121.083C145.276 121.478 147.384 122.225 148.57 122.84L150.679 123.894L150.415 126.442C150.196 128.419 150.327 129.386 150.899 130.616C151.733 132.461 154.193 134.569 156.566 135.536C157.883 136.107 158.191 136.502 158.762 138.523C159.113 139.753 159.948 142.696 160.651 144.981C161.661 148.407 161.881 149.857 161.793 153.108C161.749 155.26 161.442 158.16 161.134 159.477C160.563 161.762 160.475 161.894 158.586 162.421C156.609 162.992 154.413 164.881 154.852 165.672C155.292 166.33 156.961 166.111 158.498 165.188C159.245 164.705 159.904 164.485 159.904 164.749C159.904 165.891 157.4 172.876 155.863 175.951C152.963 181.838 149.8 185.308 146.066 186.714C143.431 187.724 139.257 186.187 136.446 183.243C134.952 181.706 135.084 181.223 136.841 181.882C138.071 182.365 139.696 182.101 139.696 181.486C139.696 180.608 137.412 179.202 135.304 178.807C134.03 178.543 132.931 178.323 132.843 178.235C131.745 177.049 128.143 167.78 126.518 161.981C125.727 159.17 125.727 158.994 126.43 159.258C128.099 160.005 129.593 160.049 129.593 159.346C129.593 158.511 127.66 156.93 126.254 156.578C125.551 156.402 125.068 155.831 124.76 154.689C124.014 152.053 121.729 137.776 120.895 130.352C120.148 124.026 120.148 123.367 120.763 123.06C121.158 122.84 123.662 122.181 126.298 121.566C128.978 120.951 131.526 120.336 132.009 120.204C133.502 119.853 141.102 120.424 143.826 121.083ZM66.4217 122.225C67.7396 124.29 67.6957 124.993 66.3778 123.455C65.631 122.62 65.0599 121.786 65.016 121.566C65.016 120.907 65.8067 121.303 66.4217 122.225ZM158.762 122.181C158.982 122.401 159.07 122.664 158.938 122.796C158.63 123.148 156.39 122.093 156.39 121.61C156.39 121.171 158.147 121.566 158.762 122.181ZM57.1086 126.091C57.7236 126.969 57.9433 128.243 58.0312 132.153C58.1629 136.81 58.119 137.117 57.1965 137.732C56.274 138.391 56.0982 138.347 53.6382 136.326C51.6174 134.657 50.9585 133.822 50.5631 132.373C49.8602 129.737 49.9481 129.473 51.0463 130.22C51.5735 130.616 52.496 130.923 53.0232 130.923C54.9561 130.923 54.0775 128.639 51.5735 127.101C50.7827 126.662 50.8706 126.442 52.9353 124.378L55.1318 122.093L55.7029 123.543C56.0543 124.334 56.6693 125.476 57.1086 126.091ZM63.9177 124.334C64.357 125.168 64.4888 126.091 64.3131 126.662C64.0056 127.584 63.9617 127.584 63.4345 126.311C62.8634 124.993 62.6438 123.016 63.0391 123.016C63.127 123.016 63.5663 123.631 63.9177 124.334ZM155.379 125.564C155.643 125.739 156.038 126.486 156.214 127.189C156.609 128.814 157.971 131.67 158.586 132.021C158.85 132.153 158.542 131.362 157.927 130.22C155.907 126.442 156.917 125.783 159.86 128.946C161.178 130.352 161.661 131.318 161.705 132.329C161.749 133.559 161.793 133.647 162.057 132.768C162.32 131.802 162.452 131.934 163.55 133.954C164.912 136.502 165.044 137.293 164.034 136.898C163.638 136.766 161.925 136.326 160.256 135.975C157.444 135.404 153.446 133.427 153.359 132.549C153.359 132.373 153.051 131.67 152.7 131.011C152.085 129.781 151.865 128.727 151.953 127.233C151.997 126.574 152.129 126.53 152.656 126.969C153.007 127.277 153.315 127.76 153.315 128.068C153.315 128.727 155.511 131.494 155.819 131.187C155.907 131.099 155.599 130.264 155.116 129.342C154.193 127.672 153.886 125.212 154.545 125.212C154.72 125.212 155.072 125.388 155.379 125.564ZM172.161 128.595C172.117 130.967 172.073 131.055 171.677 129.737C171.238 128.463 171.458 126.091 171.985 126.091C172.117 126.091 172.204 127.233 172.161 128.595ZM176.378 128.595C176.29 128.946 176.378 129.078 176.597 128.946C176.861 128.814 177.037 128.771 177.037 128.902C177.037 128.99 177.169 129.386 177.3 129.781C177.476 130.264 177.3 130.484 176.685 130.484C175.763 130.484 175.411 129.869 175.016 127.541C174.796 126.354 174.796 126.354 175.719 127.189C176.202 127.628 176.51 128.287 176.378 128.595ZM49.8602 131.714L50.1677 133.559L48.4545 132.592C47.532 132.065 46.6973 131.582 46.6094 131.494C46.4776 131.406 46.9609 130.747 47.6637 130.045C49.1134 128.551 49.377 128.727 49.8602 131.714ZM40.5032 129.649C43.8419 130.352 48.6741 132.856 51.7053 135.492C53.0232 136.59 52.3203 137.688 50.6949 137.073C48.8938 136.37 43.7979 135.272 43.5783 135.536C43.4465 135.668 43.6661 135.755 44.0615 135.755C44.5008 135.755 44.8083 136.019 44.8083 136.37C44.8083 136.722 45.2476 137.337 45.7748 137.688C47.3123 138.787 47.6198 138.523 46.258 137.249L45.028 136.151L46.5655 136.458C48.7181 136.854 53.5943 138.83 53.5943 139.314C53.5943 139.533 53.111 139.797 52.496 139.973C51.9249 140.104 51.222 140.5 50.9145 140.851C50.651 141.203 50.2556 141.334 50.0359 141.203C49.8163 141.071 49.6406 141.203 49.6406 141.422C49.6406 142.037 45.7748 143.97 42.0407 145.2C39.0974 146.123 38.9657 146.167 36.3299 145.42C31.9369 144.234 28.9936 142.345 28.9936 140.719C28.9936 139.973 29.2133 139.973 32.2005 141.027C34.7484 141.906 38.0431 142.213 37.6038 141.51C37.472 141.291 36.6813 140.983 35.8906 140.851C33.738 140.456 30.1797 138.084 30.4872 137.249C30.619 136.898 30.5751 136.722 30.3115 136.854C30.0479 136.985 29.8722 136.941 29.8722 136.722C29.8722 136.239 30.9265 135.755 31.9369 135.755C32.3323 135.755 33.2987 136.239 34.0895 136.854C36.0224 138.303 39.3171 139.709 40.7668 139.665C41.7772 139.665 41.6893 139.577 40.1957 139.094C37.8674 138.347 35.5391 137.161 34.6166 136.195C33.9137 135.448 34.0016 135.404 35.627 135.14C36.5935 134.965 38.7021 134.965 40.3275 135.053C42.7875 135.272 42.9633 135.228 41.5136 134.877C40.5471 134.657 38.3067 134.481 36.5935 134.481C34.6605 134.438 33.3866 134.262 33.3866 133.998C33.3866 133.735 34.4409 133.032 35.7149 132.461C36.9449 131.846 37.7356 131.362 37.3842 131.362C37.0767 131.362 35.0998 132.153 33.0351 133.12C29.4768 134.789 28.115 135.053 28.115 134.042C28.115 133.383 30.1358 131.45 31.6294 130.703C34.397 129.254 37.1206 128.946 40.5032 129.649ZM162.101 137.557C163.506 138.04 163.506 138.128 163.243 140.061C163.111 141.159 162.979 143.004 162.979 144.146C162.979 145.332 162.804 146.299 162.584 146.299C162.276 146.299 159.904 138.391 159.904 137.381C159.904 136.941 160.431 136.985 162.101 137.557ZM218.99 141.027C218.814 143.004 218.55 144.497 218.419 144.366C218.287 144.19 218.023 143.004 217.847 141.642C217.584 139.709 217.672 138.918 218.199 138.084C218.594 137.513 218.99 137.161 219.077 137.249C219.209 137.381 219.165 139.05 218.99 141.027ZM102.181 140.676C102.049 141.949 101.917 145.64 101.917 148.803C101.917 152.009 101.741 154.645 101.565 154.645C101.346 154.645 100.643 151.614 99.984 147.924C99.3251 144.278 98.6661 140.895 98.5343 140.456C98.3586 139.797 98.4904 139.665 99.2372 139.929C99.8083 140.104 100.379 139.929 100.907 139.314C102.181 137.908 102.488 138.259 102.181 140.676ZM58.5144 144.146C58.6462 147.045 58.5583 147.353 57.4601 148.539C56.7572 149.242 56.23 149.989 56.23 150.208C56.23 150.911 57.1526 151.263 57.6797 150.735C58.6901 149.725 58.8658 150.384 58.8658 155.172C58.8658 158.028 58.6901 159.917 58.4705 159.653C58.0751 159.258 54.4728 148.188 53.5943 144.585C53.3307 143.575 53.1989 142.433 53.3307 142.081C53.5943 141.378 54.9121 141.247 54.9121 141.906C54.9121 142.564 56.4936 142.433 57.1086 141.686C58.0751 140.5 58.3387 140.983 58.5144 144.146ZM52.6717 143.97C52.8914 144.893 53.4185 146.826 53.77 148.319C54.1653 149.769 55.4832 154.03 56.7133 157.764L58.9537 164.529L58.6022 168.703C58.2069 172.744 58.1629 172.876 56.889 173.491C55.1757 174.282 54.0336 175.292 54.0336 176.039C54.0336 176.786 55.3954 176.786 56.4936 175.951C57.7676 174.985 57.8994 175.116 57.504 177.357C56.4058 183.331 53.4185 190.272 51.0024 192.6C49.2013 194.314 46.873 195.061 44.8083 194.533C43.2268 194.138 39.976 191.854 39.976 191.151C39.976 190.975 40.6789 190.931 41.5136 191.019C42.6997 191.151 43.0511 191.063 43.0511 190.492C43.0511 189.657 41.7772 188.954 39.405 188.559C37.6917 188.251 37.516 188.076 35.9345 184.913C35.012 183.068 33.5623 179.685 32.7276 177.313L31.1901 173.052L32.7276 173.359C35.1438 173.799 34.6166 172.261 31.9808 171.163L30.3994 170.46L28.8618 164.002C27.2364 157.281 24.9521 145.815 25.1717 145.596C25.2596 145.508 25.9625 145.156 26.7532 144.849C28.1589 144.278 28.3347 144.278 29.7843 145.244C32.0248 146.782 34.4848 147.309 37.9553 147.001C41.25 146.694 46.3019 145.156 49.5527 143.443C50.6949 142.872 51.7492 142.389 51.9249 142.345C52.1006 142.345 52.4521 143.092 52.6717 143.97ZM221.625 172.349C222.284 175.907 222.724 178.938 222.592 179.07C222.46 179.246 221.757 178.938 221.054 178.411C220.308 177.884 219.341 177.489 218.902 177.489C218.419 177.489 217.935 177.401 217.804 177.269C217.716 177.137 217.935 175.116 218.375 172.744C218.814 170.416 219.297 167.736 219.429 166.77C219.605 165.847 219.868 165.232 220.044 165.452C220.22 165.672 220.923 168.747 221.625 172.349ZM105.387 176.918C107.013 183.331 107.013 183.463 105.783 182.584C105.256 182.189 104.333 181.882 103.762 181.882C102.752 181.882 102.752 181.882 103.059 177.137C103.323 172.525 103.498 171.031 103.85 171.382C103.982 171.47 104.641 173.974 105.387 176.918Z" fill="#848DAC"/>
<path d="M110.703 25.9311C111.055 26.1507 111.845 26.3704 112.417 26.3704C113.822 26.3704 113.471 26.1068 111.582 25.7554C110.484 25.5797 110.22 25.6236 110.703 25.9311Z" fill="#848DAC"/>
<path d="M146.242 90.8153C145.671 91.5182 145.715 91.5621 146.418 90.991C146.813 90.6835 147.165 90.3321 147.165 90.2442C147.165 89.8928 146.813 90.1124 146.242 90.8153Z" fill="#848DAC"/>
<path d="M144.485 92.1332C143.914 92.8361 143.958 92.88 144.661 92.3089C145.364 91.7378 145.583 91.3864 145.232 91.3864C145.144 91.3864 144.793 91.7378 144.485 92.1332Z" fill="#848DAC"/>
<path d="M148.043 92.3089C147.735 92.7921 147.604 93.3193 147.735 93.4071C147.823 93.495 148.131 93.0996 148.394 92.4846C149.009 91.1667 148.702 91.0349 148.043 92.3089Z" fill="#848DAC"/>
<path d="M106.397 102.149C106.397 102.852 106.485 103.116 106.617 102.676C106.705 102.281 106.705 101.666 106.617 101.358C106.485 101.095 106.397 101.402 106.397 102.149Z" fill="#848DAC"/>
<path d="M102.62 102.94C102.752 103.379 103.015 103.599 103.147 103.467C103.279 103.335 103.147 102.984 102.84 102.676C102.4 102.281 102.357 102.325 102.62 102.94Z" fill="#848DAC"/>
<path d="M97.3481 111.55C96.8648 112.297 98.4024 113 101.038 113.307C102.488 113.483 103.674 113.527 103.674 113.395C103.674 113.263 103.015 112.692 102.224 112.121C100.775 111.155 97.7874 110.803 97.3481 111.55Z" fill="#848DAC"/>
<path d="M151.777 91.8257C151.426 92.3968 151.997 92.3968 152.875 91.8257C153.446 91.4742 153.446 91.3864 152.787 91.3864C152.392 91.3864 151.909 91.5621 151.777 91.8257Z" fill="#848DAC"/>
<path d="M160.783 128.419C160.783 128.551 161.31 128.946 161.925 129.386C162.584 129.781 162.936 129.913 162.804 129.649C162.496 129.166 160.783 128.112 160.783 128.419Z" fill="#848DAC"/>
<path d="M244.293 120.072C244.381 120.16 245.172 120.687 246.007 121.215L247.544 122.225L246.226 121.083C245.523 120.468 244.733 119.941 244.513 119.941C244.293 119.941 244.206 119.985 244.293 120.072Z" fill="#848DAC"/>
<path d="M245.787 125.695C246.05 127.013 246.446 127.321 246.446 126.179C246.446 125.695 246.27 125.168 246.05 124.993C245.787 124.861 245.699 125.168 245.787 125.695Z" fill="#848DAC"/>
<path d="M40.1952 133.559C39.5802 133.866 39.8438 133.91 41.0738 133.691C42.0402 133.559 42.9188 133.383 43.0067 133.295C43.4021 132.944 41.0299 133.207 40.1952 133.559Z" fill="#848DAC"/>
<path d="M97.7874 75.5717C96.6891 76.7578 95.7666 77.856 95.7666 78.0318C95.7666 78.2075 95.8105 78.2514 95.8984 78.1635C95.9863 78.0757 96.9966 76.9335 98.1827 75.6596C99.3249 74.4295 100.16 73.3752 100.072 73.3752C99.9399 73.3752 98.9295 74.3417 97.7874 75.5717Z" fill="#848DAC"/>
<path d="M57.1963 74.9128C57.1963 75.6156 57.2841 75.8792 57.4159 75.4399C57.5038 75.0445 57.5038 74.4295 57.4159 74.122C57.2841 73.8584 57.1963 74.1659 57.1963 74.9128Z" fill="#848DAC"/>
<path d="M60.2715 78.2075C60.2715 78.8225 60.3593 79.0421 60.4911 78.7346C60.579 78.471 60.579 77.9439 60.4911 77.6364C60.3593 77.3728 60.2715 77.5924 60.2715 78.2075Z" fill="#848DAC"/>
<path d="M212.576 79.8329C212.005 80.5357 212.049 80.5797 212.752 80.0086C213.455 79.4375 213.674 79.0861 213.323 79.0861C213.235 79.0861 212.884 79.4375 212.576 79.8329Z" fill="#848DAC"/>
<path d="M210.38 82.0294L209.325 83.2594L210.555 82.2051C211.653 81.1947 211.961 80.8433 211.61 80.8433C211.522 80.8433 210.995 81.3704 210.38 82.0294Z" fill="#848DAC"/>
<path d="M223.69 126.969C223.69 127.584 223.778 127.804 223.91 127.497C223.998 127.233 223.998 126.706 223.91 126.398C223.778 126.135 223.69 126.354 223.69 126.969Z" fill="#848DAC"/>
<path d="M221.231 143.004C221.406 144.19 221.582 145.288 221.67 145.376C222.065 145.815 221.802 142.081 221.406 141.466C221.099 141.027 221.055 141.51 221.231 143.004Z" fill="#848DAC"/>
<path d="M103.498 152.888C103.85 154.777 104.113 155.128 104.113 153.723C104.113 153.152 103.894 152.361 103.674 152.009C103.366 151.526 103.323 151.79 103.498 152.888Z" fill="#848DAC"/>
<path d="M154.985 210.743C155.292 210.875 155.688 210.831 155.819 210.699C155.995 210.568 155.731 210.436 155.248 210.48C154.765 210.48 154.633 210.612 154.985 210.743Z" fill="#848DAC"/>
<path d="M62.9959 211.842C64.0063 215.532 64.182 218.387 63.6549 223C62.8641 230.424 63.4792 233.279 65.8514 233.279C66.2907 233.279 66.1149 233.06 65.456 232.708C64.4895 232.225 64.3578 231.83 64.226 229.545C64.1381 228.096 64.2699 225.152 64.4895 223C64.8849 218.695 64.5335 214.741 63.4792 212.545C63.1277 211.754 62.9081 211.446 62.9959 211.842Z" fill="#848DAC"/>
<path d="M104.29 221.638C104.158 222.736 104.114 225.548 104.202 227.92C104.377 231.786 104.553 232.577 106.222 236.311C108.419 241.231 109.166 245.096 108.551 248.479C107.804 252.477 106.618 254.146 104.334 254.497L103.016 254.673L104.377 254.761C105.871 254.805 107.189 253.795 108.375 251.598C108.99 250.5 109.166 249.138 109.166 245.36C109.166 240.616 109.122 240.484 107.321 236.662C104.992 231.83 104.377 228.667 104.641 223.615C104.773 221.418 104.817 219.661 104.729 219.661C104.685 219.661 104.465 220.54 104.29 221.638Z" fill="#848DAC"/>
<path d="M226.634 229.633C226.063 230.336 226.107 230.38 226.809 229.809C227.205 229.501 227.556 229.15 227.556 229.062C227.556 228.711 227.205 228.93 226.634 229.633Z" fill="#848DAC"/>
<path d="M208.973 261.702C207.963 262.712 210.379 265.831 212.092 265.743C212.707 265.743 212.707 265.656 212.18 265.48C210.335 264.777 209.017 263.459 209.237 262.449C209.456 261.306 209.413 261.219 208.973 261.702Z" fill="#848DAC"/>
</svg>
