<svg width="75" height="75" viewBox="0 0 75 75" fill="none" xmlns="http://www.w3.org/2000/svg">
<path d="M51.5727 35.0555C50.3394 35.0555 49.1567 34.5656 48.2846 33.6935C47.4126 32.8215 46.9227 31.6387 46.9227 30.4055H56.2227C56.2227 32.9742 54.1414 35.0555 51.5727 35.0555ZM52.8477 27.9094C52.6944 27.9094 52.5475 27.8485 52.4391 27.7402C52.3308 27.6318 52.2699 27.4849 52.2699 27.3316C52.2699 27.1784 52.3308 27.0315 52.4391 26.9231C52.5475 26.8148 52.6944 26.7539 52.8477 26.7539C53.0009 26.7539 53.1478 26.8148 53.2562 26.9231C53.3645 27.0315 53.4254 27.1784 53.4254 27.3316C53.4254 27.4849 53.3645 27.6318 53.2562 27.7402C53.1478 27.8485 53.0009 27.9094 52.8477 27.9094ZM49.7398 27.3305C49.7398 27.4837 49.8007 27.6306 49.9091 27.739C50.0174 27.8473 50.1644 27.9082 50.3176 27.9082C50.4708 27.9082 50.6178 27.8473 50.7261 27.739C50.8344 27.6306 50.8953 27.4837 50.8953 27.3305C50.8953 27.1772 50.8344 27.0303 50.7261 26.9219C50.6178 26.8136 50.4708 26.7527 50.3176 26.7527C50.1644 26.7527 50.0174 26.8136 49.9091 26.9219C49.8007 27.0303 49.7398 27.1772 49.7398 27.3305ZM55.0555 21.0562C55.3601 21.0562 55.6522 21.1772 55.8675 21.3926C56.0829 21.608 56.2039 21.9001 56.2039 22.2047V24.6328C56.2039 24.9374 56.0829 25.2295 55.8675 25.4449C55.6522 25.6602 55.3601 25.7812 55.0555 25.7812C54.7509 25.7812 54.4588 25.6602 54.2434 25.4449C54.028 25.2295 53.907 24.9374 53.907 24.6328V22.207C53.907 22.0562 53.9367 21.9069 53.9945 21.7675C54.0522 21.6282 54.1368 21.5016 54.2434 21.395C54.35 21.2883 54.4766 21.2037 54.616 21.146C54.7553 21.0883 54.9047 21.0562 55.0555 21.0562ZM49.1727 22.207C49.1727 21.9024 49.0517 21.6103 48.8363 21.395C48.6209 21.1796 48.3288 21.0586 48.0242 21.0586C47.7196 21.0586 47.4275 21.1796 47.2122 21.395C46.9968 21.6103 46.8758 21.9024 46.8758 22.207V24.6328C46.8758 24.9374 46.9968 25.2295 47.2122 25.4449C47.4275 25.6602 47.7196 25.7812 48.0242 25.7812C48.3288 25.7812 48.6209 25.6602 48.8363 25.4449C49.0517 25.2295 49.1727 24.9374 49.1727 24.6328V22.207Z" fill="#CCD6F6"/>
<path d="M63.6707 19.118C62.5309 17.2384 60.9256 15.6844 59.01 14.6063C57.0943 13.5282 54.933 12.9623 52.7348 12.9633H50.4098C48.2132 12.9621 46.0535 13.527 44.1388 14.6034C42.2241 15.6798 40.6191 17.2314 39.4785 19.1086C38.2619 19.2517 37.1001 19.6952 36.0975 20.3991C35.095 21.1031 34.2834 22.0453 33.7356 23.141C33.1879 24.2367 32.9213 25.4514 32.9599 26.6758C32.9985 27.9001 33.341 29.0957 33.9566 30.1547C20.1754 33.1406 15.7223 45.2953 15.2395 51.2836C15.2366 51.3156 15.235 51.3476 15.2348 51.3797V56.1609C14.7613 55.9992 14.2715 55.7625 13.7863 55.4297C12.2582 54.3914 11.0184 52.5469 11.0957 49.7859C11.2387 44.693 13.8754 41.8477 17.2457 38.8359L18.073 38.1024C19.5027 36.8438 21.1269 35.4141 22.3855 33.8602C24.0027 31.8656 25.2684 29.4 25.2684 26.2195C25.2684 21.0117 21.7832 17.7445 17.8246 16.9266C14.0488 16.1438 9.55117 17.5289 7.19101 21.4969C6.75434 22.2316 6.62742 23.1097 6.83818 23.938C7.04893 24.7663 7.58011 25.477 8.31484 25.9137C9.04958 26.3504 9.92768 26.4773 10.756 26.2665C11.5843 26.0558 12.295 25.5246 12.7316 24.7899C13.4863 23.5242 15.0285 22.9289 16.5191 23.2383C17.8223 23.5078 18.823 24.3984 18.823 26.2195C18.823 27.5086 18.3637 28.5867 17.3793 29.8008C16.491 30.8977 15.366 31.8914 13.9504 33.143L12.9496 34.0313C9.32382 37.2727 4.87539 41.6953 4.65273 49.6031C4.50977 54.675 6.91211 58.5469 10.1559 60.757C11.6779 61.7959 13.4134 62.4807 15.2348 62.7609V62.8781C15.2348 68.4375 19.6621 71.1094 23.2434 71.3719C23.284 71.3741 23.3246 71.3741 23.3652 71.3719L50.391 71.3742C51.6613 71.3742 52.791 70.3266 52.6879 68.9438C52.2027 62.5594 48.059 56.7234 42.2957 54.3094L47.8035 48.6352C52.4559 51.3234 57.1012 57.1477 58.5426 64.0664C57.4567 64.6856 56.554 65.5812 55.9263 66.6622C55.2985 67.7432 54.968 68.9711 54.9684 70.2211C54.9684 70.5319 55.0918 70.83 55.3116 71.0497C55.5314 71.2695 55.8294 71.393 56.1402 71.393H67.9691C68.121 71.3932 68.2715 71.3637 68.4121 71.3063L68.4262 71.3016C69.441 70.9031 70.0762 70.0195 70.4793 69.3094C70.873 68.6133 71.098 67.8445 71.1168 67.2773C71.1173 67.257 71.1173 67.2367 71.1168 67.2164C70.9105 54.4641 64.0457 45.3258 57.2441 40.0524C60.3027 38.8952 62.8042 36.6142 64.2379 33.675C65.945 33.3157 67.4698 32.3639 68.5424 30.9881C69.615 29.6123 70.1661 27.9014 70.0982 26.1582C70.0302 24.4151 69.3476 22.7522 68.1712 21.4641C66.9948 20.176 65.4006 19.3457 63.6707 19.1203V19.118ZM36.516 29.7234C36.0098 29.1325 35.6472 28.4323 35.4567 27.6778C35.2662 26.9233 35.2529 26.135 35.418 25.3745C35.583 24.614 35.9218 23.9021 36.4079 23.2944C36.8941 22.6867 37.5142 22.1999 38.2199 21.8719C37.8309 23.0953 37.6199 24.4008 37.6199 25.7531V28.0781C37.6199 28.6406 37.6551 29.1938 37.7254 29.7375C37.3316 29.6906 36.9285 29.6859 36.516 29.7234ZM64.9387 21.9141C65.7626 22.316 66.4614 22.9349 66.9598 23.7044C67.4582 24.4738 67.7374 25.3646 67.7673 26.2808C67.7972 27.1971 67.5767 28.1042 67.1295 28.9044C66.6823 29.7047 66.0253 30.3679 65.2293 30.8227C65.4259 29.9219 65.5249 29.0025 65.5246 28.0805V25.7555C65.5246 24.4195 65.3184 23.1281 64.9387 21.9141ZM56.8223 16.9992C58.2053 16.9992 59.5317 17.5486 60.5097 18.5266C61.4877 19.5046 62.0371 20.831 62.0371 22.2141V22.3781C62.0371 24.232 61.0668 25.8609 59.609 26.7844C59.7959 27.9476 59.7281 29.1376 59.4102 30.2721C59.0924 31.4066 58.532 32.4586 57.7678 33.3554C57.0037 34.2521 56.054 34.9723 54.9843 35.4662C53.9146 35.9601 52.7504 36.2158 51.5723 36.2158C50.3941 36.2158 49.2299 35.9601 48.1602 35.4662C47.0906 34.9723 46.1408 34.2521 45.3767 33.3554C44.6125 32.4586 44.0522 31.4066 43.7343 30.2721C43.4164 29.1376 43.3486 27.9476 43.5355 26.7844C42.7917 26.3146 42.179 25.6642 41.7544 24.8938C41.3298 24.1233 41.1072 23.2578 41.1074 22.3781V22.2141C41.1074 20.831 41.6568 19.5046 42.6348 18.5266C43.6128 17.5486 44.9392 16.9992 46.3223 16.9992H56.8223ZM62.0559 65.4797C63.1094 65.4794 64.133 65.8302 64.9649 66.4766C65.7968 67.1231 66.3896 68.0283 66.6496 69.0492H57.4574C57.7187 68.0281 58.3125 67.123 59.1451 66.4767C59.9777 65.8303 61.0018 65.4796 62.0559 65.4797ZM33.8371 69.0422H24.6496C24.9121 68.0234 25.5058 67.1207 26.3374 66.4762C27.169 65.8317 28.1912 65.4819 29.2434 65.4819C30.2955 65.4819 31.3177 65.8317 32.1493 66.4762C32.9809 67.1207 33.5746 68.0234 33.8371 69.0422Z" fill="#CCD6F6"/>
</svg>
