<svg width="20" height="22" viewBox="0 0 20 22" fill="none" xmlns="http://www.w3.org/2000/svg">
<path d="M0.0302734 17.3752L0.195714 17.2029L8.00065 6.1416L8.01719 6.02455L4.57699 1.19695C4.51401 1.10867 4.41546 1.03742 4.2953 0.993278C4.17514 0.949137 4.03944 0.934341 3.9074 0.950982C3.77537 0.967623 3.65367 1.01486 3.55955 1.08601C3.46542 1.15716 3.40362 1.24862 3.38289 1.34745L0.0302734 17.3752Z" fill="#FFC24A"/>
<path d="M0.12793 17.2444L0.252497 17.0626L7.97666 6.1162L4.54521 1.2697C4.48862 1.18542 4.397 1.1171 4.28408 1.07498C4.17115 1.03287 4.043 1.01922 3.91882 1.03609C3.79464 1.05296 3.68112 1.09943 3.59527 1.16855C3.50941 1.23766 3.45585 1.3257 3.44259 1.41947L0.12793 17.2444Z" fill="#FFA712"/>
<path d="M10.5244 9.67575L13.0858 7.71272L10.5234 4.06221C10.467 3.98365 10.3832 3.91798 10.2808 3.8722C10.1784 3.82642 10.0613 3.80225 9.94196 3.80225C9.82263 3.80225 9.70553 3.82642 9.60313 3.8722C9.50074 3.91798 9.41688 3.98365 9.36048 4.06221L7.99121 6.01216V6.17865L10.5244 9.67575Z" fill="#F4BD62"/>
<path d="M10.4797 9.59581L12.9701 7.69094L10.4797 4.14295C10.439 4.06615 10.3693 3.9998 10.2792 3.95189C10.1891 3.90399 10.0824 3.87658 9.97195 3.87297C9.86147 3.86936 9.75195 3.8897 9.65659 3.93154C9.56124 3.97338 9.48412 4.03493 9.43453 4.10878L8.05845 6.09289L8.01758 6.19395L10.4797 9.59581Z" fill="#FFA50E"/>
<path d="M0.0322266 17.3759L0.107162 17.3192L0.37868 17.237L10.3635 9.80513L10.4901 9.54776L7.99968 6.00122L0.0322266 17.3759Z" fill="#F6820C"/>
<path d="M10.8443 21.1233L19.8832 17.358L17.3004 5.48455C17.2819 5.40085 17.2329 5.32258 17.1587 5.25833C17.0845 5.19408 16.9881 5.14634 16.88 5.12035C16.7719 5.09435 16.6563 5.09112 16.5459 5.11099C16.4355 5.13086 16.3346 5.17307 16.2542 5.23299L0.0302734 17.3747L9.01568 21.1226C9.29502 21.2391 9.6096 21.3002 9.9295 21.3002C10.2494 21.3002 10.564 21.2391 10.8433 21.1226" fill="#FDE068"/>
<path d="M19.8008 17.3272L17.2394 5.54316C17.2349 5.4631 17.1987 5.38585 17.1354 5.32117C17.072 5.2565 16.9845 5.20731 16.8837 5.17983C16.783 5.15235 16.6736 5.14782 16.5694 5.16681C16.4652 5.1858 16.3708 5.22746 16.2983 5.28652L0.12793 17.3526L9.01407 21.0605C9.2912 21.176 9.60326 21.2367 9.92059 21.2367C10.2379 21.2367 10.55 21.176 10.8271 21.0605L19.8008 17.3272Z" fill="#FCCA3F"/>
<path d="M10.8443 21.0103C10.5649 21.1268 10.2504 21.1879 9.93047 21.1879C9.61057 21.1879 9.296 21.1268 9.01665 21.0103L0.104235 17.3184L0.0302734 17.3751L9.01568 21.123C9.29502 21.2395 9.6096 21.3006 9.9295 21.3006C10.2494 21.3006 10.564 21.2395 10.8433 21.123L19.8832 17.3584L19.8608 17.2566L10.8443 21.0103Z" fill="#EEAB37"/>
</svg>
