<svg width="50" height="50" viewBox="0 0 50 50" fill="none" xmlns="http://www.w3.org/2000/svg">
<path d="M41.6665 37.4999H37.4998V19.2708L24.9998 27.0833L12.4998 19.2708V37.4999H8.33317V12.4999H10.8332L24.9998 21.3541L39.1665 12.4999H41.6665M41.6665 8.33325H8.33317C6.02067 8.33325 4.1665 10.1874 4.1665 12.4999V37.4999C4.1665 38.605 4.60549 39.6648 5.38689 40.4462C6.16829 41.2276 7.2281 41.6666 8.33317 41.6666H41.6665C42.7716 41.6666 43.8314 41.2276 44.6128 40.4462C45.3942 39.6648 45.8332 38.605 45.8332 37.4999V12.4999C45.8332 11.3948 45.3942 10.335 44.6128 9.55364C43.8314 8.77224 42.7716 8.33325 41.6665 8.33325Z" fill="white"/>
</svg>
