<svg width="244" height="244" viewBox="0 0 244 244" fill="none" xmlns="http://www.w3.org/2000/svg">
<path fill-rule="evenodd" clip-rule="evenodd" d="M122 15.25C143.113 15.25 163.752 21.5108 181.307 33.2406C198.862 44.9705 212.544 61.6425 220.624 81.1485C228.704 100.655 230.818 122.118 226.699 142.826C222.58 163.533 212.413 182.554 197.484 197.484C182.554 212.413 163.533 222.58 142.826 226.699C122.118 230.818 100.655 228.704 81.1485 220.624C61.6425 212.544 44.9705 198.862 33.2406 181.307C21.5108 163.752 15.25 143.113 15.25 122C15.25 93.6881 26.4968 66.5359 46.5163 46.5163C66.5359 26.4968 93.6881 15.25 122 15.25Z" fill="#CC6699"/>
<path d="M188.964 60.9388C184.13 41.9831 152.692 35.7763 122.939 46.3141C104.306 52.5754 87.091 62.4501 72.279 75.373C55.8928 90.6992 53.2775 104.043 54.3526 109.617C58.1651 129.289 85.1042 142.145 96.1833 151.684V151.737C92.9198 153.346 69.0078 165.462 63.3958 177.815C57.4941 190.869 64.3337 200.232 68.8706 201.49C75.6822 203.13 82.8362 202.597 89.3291 199.964C95.8219 197.332 101.328 192.733 105.074 186.812C108.17 182.016 110.107 176.564 110.732 170.889C111.357 165.214 110.652 159.472 108.673 154.116C114.01 152.76 119.557 152.442 125.013 153.178C143.74 155.367 147.416 167.056 146.714 171.951C146.384 173.694 145.683 175.345 144.658 176.792C143.633 178.239 142.308 179.449 140.774 180.339C139.463 181.155 139.059 181.429 139.173 182.039C139.333 182.916 139.936 182.885 141.056 182.695C143.871 181.808 146.35 180.09 148.169 177.767C149.987 175.444 151.059 172.624 151.243 169.679C151.693 158.241 140.706 145.386 121.247 145.714C115.595 145.552 109.955 146.325 104.556 148.001C104.285 147.692 104.011 147.387 103.732 147.086C91.6998 134.253 69.4653 125.172 70.4032 107.916C70.7463 101.641 72.9271 85.1253 113.103 65.0868C146.043 48.6702 172.41 53.1918 176.97 63.2035C183.482 77.508 162.879 104.081 128.673 107.916C124.893 108.684 120.988 108.59 117.248 107.643C113.509 106.695 110.031 104.917 107.072 102.442C105.272 100.459 105.005 100.375 104.334 100.741C103.244 101.344 103.938 103.097 104.334 104.134C105.644 106.495 107.412 108.57 109.535 110.238C111.657 111.906 114.091 113.134 116.695 113.849C130.143 116.771 144.171 115.384 156.787 109.884C177.534 101.885 193.715 79.582 188.964 60.9388ZM100.789 157.555C102.303 162.776 102.226 168.33 100.568 173.507C100.39 174.046 100.194 174.579 99.9806 175.108C99.7671 175.637 99.5358 176.145 99.2867 176.633C98.0035 179.259 96.3412 181.681 94.3533 183.823C88.1542 190.587 79.4846 193.149 75.7712 190.991C71.7605 188.665 73.7658 179.126 80.9562 171.524C86.4812 166.061 92.851 161.524 99.8205 158.089L100.789 157.555Z" fill="white"/>
</svg>
