<svg width="36" height="36" viewBox="0 0 36 36" fill="none" xmlns="http://www.w3.org/2000/svg">
<g clip-path="url(#clip0_199_5)">
<path d="M22.6 4H21.55C21.2768 3.25011 20.7796 2.6024 20.1257 2.14473C19.4719 1.68706 18.6931 1.44157 17.895 1.44157C17.0969 1.44157 16.3181 1.68706 15.6643 2.14473C15.0104 2.6024 14.5132 3.25011 14.24 4H13.4C12.7643 4.00263 12.1554 4.25634 11.7059 4.70585C11.2563 5.15537 11.0026 5.76429 11 6.4V10H25V6.4C24.9974 5.76429 24.7437 5.15537 24.2941 4.70585C23.8446 4.25634 23.2357 4.00263 22.6 4ZM23 8H13V6.25C13 6.1837 13.0263 6.12011 13.0732 6.07323C13.1201 6.02634 13.1837 6 13.25 6H15.94L16.06 4.89C16.0813 4.71054 16.1415 4.53789 16.2365 4.38416C16.3315 4.23042 16.459 4.09931 16.61 4C16.8784 3.79993 17.1927 3.67043 17.5241 3.62335C17.8555 3.57628 18.1935 3.61315 18.5069 3.73058C18.8204 3.84801 19.0994 4.04224 19.3183 4.29547C19.5373 4.54871 19.6891 4.85284 19.76 5.18L19.85 6.02H22.75C22.8163 6.02 22.8799 6.04634 22.9268 6.09322C22.9737 6.14011 23 6.2037 23 6.27V8Z" fill="#848DAC"/>
<path d="M33.25 18.06H21.33L24.17 15.23C24.2632 15.1368 24.3372 15.0261 24.3877 14.9042C24.4381 14.7824 24.4641 14.6519 24.4641 14.52C24.4641 14.3881 24.4381 14.2576 24.3877 14.1357C24.3372 14.0139 24.2632 13.9032 24.17 13.81C24.0768 13.7168 23.9661 13.6428 23.8442 13.5923C23.7224 13.5419 23.5919 13.5159 23.46 13.5159C23.3281 13.5159 23.1976 13.5419 23.0758 13.5923C22.9539 13.6428 22.8432 13.7168 22.75 13.81L17.5 19.06L22.75 24.31C22.8434 24.4027 22.9543 24.476 23.0761 24.5258C23.1979 24.5755 23.3284 24.6008 23.46 24.6C23.6566 24.5992 23.8486 24.5405 24.0119 24.4311C24.1753 24.3218 24.3029 24.1668 24.3786 23.9854C24.4544 23.804 24.475 23.6043 24.4379 23.4113C24.4008 23.2182 24.3076 23.0404 24.17 22.9L21.33 20.06H33.25C33.5152 20.06 33.7696 19.9546 33.9571 19.7671C34.1446 19.5796 34.25 19.3252 34.25 19.06C34.25 18.7948 34.1446 18.5404 33.9571 18.3529C33.7696 18.1654 33.5152 18.06 33.25 18.06Z" fill="#848DAC"/>
<path d="M29.0001 16H31.0001V6.68C31.0027 6.46117 30.9621 6.24397 30.8804 6.04091C30.7988 5.83785 30.6779 5.65293 30.5245 5.4968C30.3712 5.34066 30.1885 5.21638 29.9869 5.13112C29.7854 5.04587 29.5689 5.0013 29.3501 5H27.0801V7H29.0001V16Z" fill="#848DAC"/>
<path d="M29.0001 31H7.00012V7H9.00012V5H6.64012C6.2016 5.00528 5.78298 5.18387 5.4757 5.49677C5.16842 5.80967 4.99745 6.23146 5.00012 6.67V31.32C4.99748 31.5388 5.03814 31.756 5.11975 31.9591C5.20137 32.1621 5.32233 32.3471 5.47568 32.5032C5.62903 32.6593 5.81173 32.7836 6.01329 32.8689C6.21485 32.9541 6.43128 32.9987 6.65012 33H29.3601C29.7986 32.9947 30.2173 32.8161 30.5245 32.5032C30.8318 32.1903 31.0028 31.7685 31.0001 31.33V22.06H29.0001V31Z" fill="#848DAC"/>
</g>
<defs>
<clipPath id="clip0_199_5">
<rect width="36" height="36" fill="white"/>
</clipPath>
</defs>
</svg>
