<svg width="14" height="14" viewBox="0 0 14 14" fill="none" xmlns="http://www.w3.org/2000/svg">
<path d="M5.368 0.00999056C5.46533 0.0254448 5.55866 0.0599289 5.64265 0.111472C5.72665 0.163015 5.79966 0.230606 5.85752 0.310381C5.91538 0.390157 5.95694 0.480553 5.97985 0.576402C6.00275 0.672252 6.00654 0.771676 5.991 0.868991L5.57 3.49999H9.55L10.01 0.631991C10.0481 0.44193 10.1583 0.274003 10.3175 0.163422C10.4767 0.0528408 10.6726 0.00819434 10.864 0.0388447C11.0554 0.069495 11.2275 0.173061 11.3442 0.327827C11.4609 0.482593 11.5132 0.676537 11.49 0.868991L11.07 3.49999H13.25C13.4489 3.49999 13.6397 3.57901 13.7803 3.71966C13.921 3.86031 14 4.05108 14 4.24999C14 4.4489 13.921 4.63967 13.7803 4.78032C13.6397 4.92097 13.4489 4.99999 13.25 4.99999H10.83L10.19 8.99999H12.75C12.9489 8.99999 13.1397 9.07901 13.2803 9.21966C13.421 9.36031 13.5 9.55108 13.5 9.74999C13.5 9.9489 13.421 10.1397 13.2803 10.2803C13.1397 10.421 12.9489 10.5 12.75 10.5H9.95L9.49 13.369C9.4519 13.5591 9.34169 13.727 9.18249 13.8376C9.02328 13.9481 8.82744 13.9928 8.63604 13.9621C8.44464 13.9315 8.27253 13.8279 8.15582 13.6732C8.03911 13.5184 7.98685 13.3244 8.01 13.132L8.43 10.5H4.45L3.99 13.369C3.9519 13.5591 3.84169 13.727 3.68249 13.8376C3.52328 13.9481 3.32744 13.9928 3.13604 13.9621C2.94464 13.9315 2.77254 13.8279 2.65582 13.6732C2.53911 13.5184 2.48685 13.3244 2.51 13.132L2.93 10.5H0.75C0.551088 10.5 0.360322 10.421 0.21967 10.2803C0.0790177 10.1397 0 9.9489 0 9.74999C0 9.55108 0.0790177 9.36031 0.21967 9.21966C0.360322 9.07901 0.551088 8.99999 0.75 8.99999H3.17L3.81 4.99999H1.25C1.05109 4.99999 0.860322 4.92097 0.71967 4.78032C0.579018 4.63967 0.5 4.4489 0.5 4.24999C0.5 4.05108 0.579018 3.86031 0.71967 3.71966C0.860322 3.57901 1.05109 3.49999 1.25 3.49999H4.05L4.51 0.631991C4.54146 0.43581 4.64947 0.260128 4.81034 0.143511C4.9712 0.0268943 5.17176 -0.0211264 5.368 0.00999056ZM8.67 8.99999L9.31 4.99999H5.33L4.69 8.99999H8.67Z" fill="#848DAC"/>
</svg>
