<svg width="279" height="373" viewBox="0 0 279 373" fill="none" xmlns="http://www.w3.org/2000/svg">
<path d="M253.081 317.626C253.412 316.806 253.781 316.449 253.992 316.759C254.204 317.069 254.841 317.158 255.412 316.996C256.253 316.719 255.916 316.302 252.976 314.272C250.036 312.243 248.946 311.746 245.828 310.992C242.237 310.158 242.14 310.119 240.978 308.134C239.172 305.103 238.929 302.648 240.177 299.561C240.761 298.113 241.432 296.869 241.636 296.783C241.858 296.649 243.035 297.348 244.249 298.232C249.926 302.377 250.533 302.679 252.311 302.724C253.644 302.757 254.32 303.03 255.302 303.932C256.362 304.921 256.555 304.999 256.547 304.323C256.589 303.386 257.923 303.139 260.559 303.699C262.172 304.014 262.422 304.227 262.149 304.903C261.974 305.337 261.401 306.06 260.898 306.473C260.152 307.07 260.141 307.234 260.73 307.304C261.127 307.296 261.815 306.564 262.302 305.638C263.089 304.104 263.312 303.97 264.518 304.457C265.29 304.769 266.613 304.967 267.493 304.873C268.372 304.779 270.236 305.028 271.569 305.341C272.949 305.675 274.292 305.824 274.553 305.593C275.173 305.17 272.2 304.474 267.399 303.993C265.352 303.783 263.218 303.37 262.726 303.059C262.166 302.777 261.423 302.533 261.104 302.629C260.756 302.656 259.607 302.585 258.525 302.484L256.545 302.246L255.525 298.242C254.953 296.047 253.881 293.144 253.17 291.847C250.875 287.665 250.642 287.964 252.656 292.425C254.621 296.867 255.563 301.063 254.75 301.689C254.459 301.852 253.561 301.714 252.693 301.363C251.342 300.817 251.102 300.439 250.964 298.419C250.835 296.515 250.585 296.022 249.582 295.728C248.008 295.317 247.007 297.101 248.502 297.705C249.033 297.92 249.359 298.501 249.242 299.07C249.103 299.969 248.891 299.939 246.914 298.859C243.635 296.974 242.616 295.608 243.153 293.861C243.837 291.612 244.892 291.084 246.095 292.412C247.395 293.779 247.57 293.345 246.533 291.466C245.967 290.508 245.893 289.58 246.321 288.519C247.257 286.203 248.109 285.762 249.216 287.05L250.12 288.145L249.498 286.491C249.172 285.63 249.021 284.615 249.138 284.325C249.43 283.602 252.055 284.606 253.982 286.226C256.053 287.905 257.471 288.702 257.666 288.22C257.9 287.641 256.753 286.729 253.754 285.124C252.269 284.356 251.199 283.531 251.345 283.309C251.539 283.107 253.182 282.929 254.979 282.925C256.776 282.922 259.299 282.65 260.672 282.307C267.606 280.563 266.36 280.453 274.349 283.736C279.926 286.046 282.107 286.759 284.049 286.814C286.58 286.938 289.706 288.37 290.522 289.822C290.762 290.199 291.206 290.491 291.525 290.395C291.873 290.368 292.817 291.086 293.645 292.094C295.339 294.013 295.637 294.245 295.871 293.667C296.047 293.232 293.909 291.022 290.913 288.577C289.043 287.092 288.339 286.751 285.162 286.141C283.125 285.767 278.425 284.205 274.546 282.694L267.599 279.887L269.263 279.1C270.163 278.678 271.643 278.21 272.523 278.116C273.374 277.955 274.11 277.523 274.13 277.194C274.122 276.798 275.585 275.537 277.445 274.268C280.68 272.096 280.815 272.038 284.495 272.515C288.271 273.031 293.707 274.161 296.409 274.972C297.201 275.236 298.408 275.443 299.036 275.416C299.664 275.389 302.251 276.21 304.759 277.223C309.777 279.25 312.302 281.056 324.625 291.254C330.955 296.561 331.764 297.057 338.411 300.191C342.269 302.031 347.257 304.27 349.476 305.167C354.156 307.058 354.357 307.532 351.489 309.908C350.414 310.765 348.097 312.747 346.392 314.19C344.618 315.663 342.652 317.057 341.994 317.296C340.35 317.754 337.888 319.958 338.021 320.741C338.077 321.157 339.518 320.785 341.599 319.942C344.018 318.955 346.691 317.061 350.606 313.761C356.75 308.555 355.967 308.687 360.566 311.611C361.916 312.437 362.389 312.516 362.883 311.987C363.465 311.38 363.562 311.419 363.809 312.473C363.932 313.14 365.01 314.361 366.148 315.158C367.266 316.002 368.72 317.263 369.404 317.932C370.04 318.582 370.848 319.358 371.147 319.591C372.015 320.222 367.581 322.583 365.126 322.826C362.787 323.059 362.088 323.955 364.049 324.242C365.014 324.352 365.294 324.633 365.099 325.116C364.943 325.502 364.989 326.082 365.201 326.391C365.46 326.721 365.742 326.442 365.966 325.747C366.553 323.739 366.834 323.46 369.099 322.299C371.635 321.022 371.944 321.091 372.131 322.85C372.252 324.078 372.252 324.078 372.538 322.678C372.685 321.895 373.017 321.075 373.259 320.893C373.501 320.71 375.044 321.614 376.711 322.905C378.426 324.215 382.659 326.655 386.615 328.533C390.405 330.402 395.026 332.717 396.877 333.69C398.71 334.711 400.379 335.441 400.534 335.336C400.717 335.298 401.632 333.31 402.588 330.946L404.303 326.701L402.952 326.155L401.669 325.581L403.264 325.383C405.071 325.216 406.188 323.703 404.507 323.697C403.298 323.77 398.531 322.236 394.691 320.629C391.96 319.469 391.758 319.275 390.907 316.799C390.438 315.319 389.507 313.596 388.939 312.918C387.987 311.803 387.697 311.686 386.363 311.933C385.56 312.114 384.874 312.285 384.854 312.333C384.854 312.333 385.828 312.839 387.063 313.394C388.829 314.164 389.435 314.745 389.712 315.867C389.893 316.67 390.314 317.85 390.533 318.556C390.954 319.736 390.906 319.717 389.258 318.658C387.243 317.395 386.579 316.397 386.979 315.268C387.194 314.738 387.01 314.776 386.409 315.431C385.652 316.191 385.16 316.161 382.989 315.284C380.596 314.261 367.678 305.674 367.285 304.842C367.218 304.591 368.138 304.12 369.299 303.748C370.508 303.394 374.087 302.035 377.232 300.78C380.396 299.477 383.24 298.549 383.529 298.666C383.867 298.803 384.264 298.514 384.44 298.08C384.635 297.598 386.824 296.069 389.254 294.638C392.42 292.774 393.939 292.209 394.372 292.665C394.7 292.966 395.289 293.035 395.666 292.795C396.703 292.035 396.705 291.475 395.68 291.79C393.609 292.469 395.326 290.581 398.153 289.142C399.701 288.364 401.096 287.413 401.232 287.075C401.388 286.689 403.035 285.39 404.875 284.17C407.868 282.18 408.188 281.804 407.941 280.75C407.664 279.628 407.597 279.657 407.031 281.056C406.388 282.648 403.337 284.783 403.912 283.219C404.088 282.785 404.495 282.332 404.843 282.305C405.143 282.257 405.716 281.535 406.027 280.763C406.378 279.894 406.38 279.334 406.013 279.41C405.665 279.438 405.277 279.842 405.101 280.276C404.946 280.662 404.247 281.559 403.529 282.223C402.793 282.935 401.754 284.255 401.22 285.162C400.491 286.27 398.399 287.838 394.719 289.999C391.68 291.689 387.981 293.899 386.47 294.86L383.739 296.619L383.245 291.592C383.003 288.857 382.605 286.508 382.412 286.43C382.171 286.332 382.184 288.246 382.427 290.701C382.641 293.088 382.671 295.513 382.437 296.092C382.222 296.623 380.199 297.882 377.673 298.994C373.705 300.758 373.222 300.843 372.752 299.924C372.233 298.985 372.185 298.965 372.104 299.999C372.014 300.916 371.307 301.416 368.608 302.402C366.769 303.062 364.961 303.51 364.623 303.374C364.286 303.237 363.296 301.659 362.432 299.907C361.07 297.168 360.966 296.453 361.57 294.957C362.759 292.014 363.651 291.196 365.728 291.194C367.429 291.151 367.863 291.327 369.154 292.578L370.646 294.022L369.878 292.59C369.101 291.041 366.545 289.728 365.326 290.245C363.836 290.878 363.396 289.466 363.816 285.37C364.308 280.125 365.456 277.839 369.983 273.439C371.777 271.639 373.465 269.683 373.738 269.008C374.849 266.258 375.459 254.887 374.462 255.27C374.239 255.405 374.148 256.603 374.163 257.956C374.307 260.932 373.631 266.495 372.91 268.28C372.637 268.956 371.132 270.873 369.552 272.423C368.001 274.041 366.371 275.852 365.866 276.546C364.837 277.982 364.383 277.855 364.225 276.164C364.181 275.023 364.084 274.984 363.772 275.756C363.432 276.46 363.267 276.45 362.883 275.734C362.144 274.369 361.937 275.576 362.637 277.037C363.059 277.937 362.998 278.923 362.374 280.466C361.439 282.782 360.256 283.764 355.069 286.325C353.384 287.16 351.177 288.457 350.237 289.256C349.249 290.035 348.29 290.602 348.145 290.543C347.952 290.465 347.994 289.528 348.191 288.485C348.967 284.758 347.679 277.391 346.212 276.855C345.923 276.738 345.95 277.086 346.229 277.647C346.526 278.16 346.974 279.969 347.133 281.66C347.291 283.352 347.525 285.41 347.61 286.174C347.694 286.938 347.379 288.55 346.921 289.824C345.429 293.655 344.203 293.496 336.025 288.733C331.638 286.119 317.299 274.938 315.038 272.341C314.47 271.662 313.612 271.147 313.167 271.136C312.655 271.154 312.067 270.804 311.846 270.378C311.654 270.02 310.643 269.05 309.67 268.264C308.495 267.284 306.976 264.931 304.933 260.682C303.283 257.265 301.795 254.42 301.602 254.342C301.409 254.264 300.823 253.353 300.275 252.347C299.728 251.34 299.035 250.555 298.668 250.631C297.45 250.868 297.551 252.144 298.964 254.342C299.81 255.582 300.914 257.711 301.498 259.182C302.399 261.398 302.397 261.958 301.511 263.733C300.878 265.161 300.731 265.943 301.144 266.447C301.924 267.435 295.038 266.281 289.74 264.533L285.571 263.185L286.912 260.977C287.631 259.752 288.554 258.161 288.914 257.409C289.323 256.676 290.108 255.983 290.639 255.917C291.403 255.833 291.529 255.659 291.212 255.194C290.847 254.71 291.022 254.276 292.089 253.023C293.37 251.521 293.38 251.356 292.65 250.107C291.699 248.433 291.236 248.189 290.846 249.154C290.691 249.54 290.91 250.246 291.276 250.731C291.921 251.496 291.871 251.757 290.979 252.855C290.377 253.51 288.687 256.026 287.201 258.456L284.47 262.853L282.599 261.928C279.898 260.556 274.789 257.089 273.634 255.781C272.431 254.453 271.347 249.357 271.666 246.624C271.956 243.823 274.454 239.445 275.467 239.854C278.632 241.189 284.514 244.688 284.589 245.335C284.732 245.954 284.848 245.945 285.082 245.366C285.335 244.739 286.156 244.79 289.003 245.66C291.011 246.246 292.933 246.63 293.339 246.457C293.833 246.208 293.225 245.906 291.294 245.407C289.315 244.888 288.515 244.508 288.468 243.928C288.354 243.377 288.065 243.26 287.184 243.634C285.336 244.459 278.815 241.431 279.38 240.032C279.516 239.694 279.335 239.172 279.055 238.891C278.651 238.503 278.448 238.589 278.465 239.101C278.413 240.203 276.887 240.091 275.934 238.977C275.463 238.337 275.304 236.926 275.542 234.946C275.712 233.275 275.778 231.169 275.732 230.309C275.619 229.477 275.632 228.473 275.788 228.087C275.944 227.701 275.978 226.367 275.924 225.111C275.749 222.627 277.006 216.738 278.449 213.168C279.326 210.997 279.28 210.417 277.866 205.581C276.042 199.4 276.007 198.376 277.43 194.854C278.015 193.407 278.241 192.151 278 192.054C277.711 191.937 277.07 192.969 276.524 194.319L275.53 196.78L274.169 193.48C273.421 191.719 271.628 187.964 270.149 185.234C268.738 182.475 267.454 179.543 267.36 178.664C267.286 177.736 266.989 176.943 266.748 176.845C265.397 176.299 265.827 177.876 268.445 183.479C273.356 193.825 274.648 197.434 274.389 199.742C274.22 201.133 272.709 205.012 270.079 210.965L266.019 220.043L266.676 225.639C267.061 228.713 267.644 233.382 267.992 235.992C269.17 244.605 269.477 248.153 269.051 248.373C268.8 248.44 267.798 247.586 266.777 246.501C263.572 242.905 259.332 239.508 251.418 234.234C247.157 231.446 243.243 228.911 242.712 228.697C239.46 227.439 234.11 223.874 229.206 219.76C219.504 211.688 214.995 208.126 213.982 207.717C212.39 207.074 212.673 206.234 214.353 206.52C216.014 206.854 216.275 206.623 216.048 205.241C215.896 204.506 215.607 204.389 214.254 204.404C213.365 204.381 211.279 203.987 209.697 203.46C206.946 202.629 206.667 202.348 205.476 200.296C204.275 198.127 204.179 198.088 202.95 198.49C201.751 198.959 201.712 199.056 202.298 199.966C202.788 200.837 202.672 200.846 201.06 200.251C200.095 199.862 199.208 199.279 199.18 198.931C199.133 198.631 199.327 198.429 199.568 198.526C199.858 198.643 200.177 198.548 200.294 198.258C200.391 198.017 199.958 197.561 199.283 197.289C198.414 196.938 197.982 196.202 197.736 194.868C197.149 191.32 197.45 190.712 200.908 188.405L204.152 186.348L210.086 188.746C218.191 192.021 223.018 193.129 229.144 193.247C233.511 193.272 234.505 193.449 235.082 194.243C235.428 194.776 236.151 195.349 236.605 195.476C237.135 195.69 236.886 195.197 236.097 194.373C234.392 192.618 231.101 191.737 227.834 192.044C226.558 192.146 223.737 191.904 221.603 191.491C217.123 190.635 206.846 186.764 206.444 185.815C206.271 185.409 207.279 184.581 209.041 183.554L211.897 181.902L218.737 184.834C226.427 188.165 227.063 188.534 226.885 189.809C226.796 190.446 226.912 190.437 227.272 189.685C227.71 188.739 227.874 188.75 228.78 189.564C229.357 190.078 229.869 190.341 229.966 190.1C230.064 189.859 229.669 189.307 229.052 188.889C228.455 188.423 228.119 187.726 228.314 187.244C228.558 186.501 228.51 186.481 227.551 187.048C226.573 187.663 226.023 187.497 220.013 184.732C216.453 183.125 213.483 181.588 213.348 181.366C213.282 181.114 214.358 179.978 215.734 178.794C217.963 176.889 218.621 176.649 221.075 176.687C222.572 176.731 224.552 176.969 225.44 177.272C226.28 177.555 227.517 177.55 228.126 177.291C228.736 177.032 229.644 177.006 230.127 177.201C230.609 177.396 231.391 177.544 231.884 177.575C232.493 177.596 232.656 177.886 232.383 178.562C232.013 179.478 232.138 179.585 233.973 179.765C235.837 180.013 236.93 179.669 237.29 178.917C237.368 178.724 236.501 178.093 235.353 177.461C233.637 176.431 232.41 176.272 227.763 176.246C221.763 176.235 221.193 176.117 219.816 174.663C218.189 172.995 218.491 158.358 220.149 156.615C220.45 156.288 220.49 155.911 220.249 155.813C219.959 155.696 219.981 155.088 220.234 154.461C220.507 153.785 220.539 153.012 220.279 152.683C219.99 152.286 219.728 152.797 219.316 154.651C218.982 156.031 218.435 157.942 218.112 158.879C217.79 159.815 217.676 162.182 217.853 164.105C218.348 168.851 218.256 173.247 217.652 174.742C216.774 176.913 211.359 181.011 205.562 183.831C204.216 184.522 202.009 185.819 200.73 186.762C199.384 187.733 198.106 188.395 197.816 188.278C197.527 188.161 197.24 187.204 197.137 186.208C197.006 185.145 196.455 182.341 195.893 179.981C195.283 177.602 195.001 175.244 195.216 174.713C195.996 172.783 196.172 163.595 195.55 159.023C195.202 156.413 194.374 152.767 193.646 150.958C192.986 149.12 192.172 146.827 191.886 145.869C191.551 144.892 191.109 144.04 190.916 143.962C190.193 143.67 189.947 139.418 190.418 134.501C190.679 131.632 190.548 127.651 190.113 124.838C188.922 117.23 188.781 113.412 189.418 107.946C190.433 99.6011 191.136 97.3039 194.24 91.1501C200.135 79.6144 199.446 80.6266 201.154 81.2606C202.022 81.6114 203.21 81.8668 203.818 81.8882C204.659 81.8911 204.399 81.5617 202.538 80.4731C200.802 79.4911 200.138 78.7738 200.044 77.8942C199.828 76.3475 203.963 67.917 205.777 66.0681C207.047 64.7295 207.526 63.1272 206.706 62.7958C206.175 62.5814 204.068 65.4342 201.483 69.8892C200.005 72.4349 198.807 75.2618 197.635 78.9971C196.169 83.7362 195.75 84.6333 194.588 85.5665C193.793 86.1435 192.812 87.5991 192.345 88.757C191.857 89.9631 191.362 90.773 191.179 90.5308C191.025 90.3563 190.584 86.5865 190.252 82.131C189.851 77.7043 189.555 73.993 189.498 73.8575C189.508 73.6933 189.16 73.7211 188.753 73.8936C188.212 74.1236 188.168 75.6211 188.686 79.4781C189.902 88.275 189.851 91.734 188.515 98.0968C186.57 107.356 186.178 117.075 187.477 124.278C188.084 127.778 188.096 132.609 187.475 136.23L187.14 137.891L183.415 133.917C181.393 131.697 177.464 128.089 174.698 125.905C167.365 120.025 159.987 113.564 157.879 111.141C156.541 109.59 156.157 108.874 156.604 108.325C156.924 107.949 157.701 106.58 158.392 105.287L159.608 102.973L157.91 105.092C156.978 106.287 155.998 107.463 155.765 107.762C155.445 108.137 155.088 108.049 154.626 107.526C154.241 107.09 153.219 106.284 152.332 105.701C150.442 104.545 147.098 99.4895 146.613 97.2172C146.243 95.2158 146.603 94.4634 148.832 92.558C151.041 90.7009 153.214 88.3798 153.603 87.4149C153.759 87.0289 153.764 85.6279 153.653 84.2362C153.542 82.8444 153.701 81.6179 153.972 81.5028C154.717 81.1866 155.696 82.9292 155.297 83.7781C154.733 84.8969 155.554 84.9481 156.331 83.859C157.369 82.5388 156.775 81.2324 155.095 80.9463C154.1 80.769 153.483 80.3513 153.186 79.558C152.592 78.2515 151.089 71.4151 151.264 70.9809C151.342 70.7879 152.291 70.1052 153.405 69.4327C154.518 68.7602 155.516 68.0969 155.651 68.0394C155.739 67.9624 156.047 68.3113 156.344 68.8245C156.623 69.3859 156.912 69.5028 157.029 69.2134C157.146 68.9239 157.061 68.4405 156.878 68.1983C156.647 67.9366 156.668 67.328 156.844 66.8938C157.234 65.9289 167.12 57.0159 167.622 57.1625C167.834 57.1923 167.908 58.4003 167.767 59.8588C167.695 61.2886 167.693 61.849 167.821 61.1151C167.997 60.4007 168.419 58.663 168.772 57.2342C169.446 54.8692 169.64 54.667 171.236 54.1894C172.581 53.7786 173.102 53.877 173.429 54.4579C173.784 55.1065 173.968 55.0685 174.26 54.3448C174.845 52.8975 177.154 52.8765 179.623 54.2668C181.214 55.1902 181.764 55.3564 181.766 54.796C181.837 53.9266 177.601 52.3273 175.339 52.3678C174.383 52.3741 173.494 52.3517 173.369 52.245C172.482 51.6622 168.471 54.6436 160.689 61.5445C155.242 66.4147 151.705 69.1949 151.358 68.9425C151.127 68.6808 150.754 67.52 150.614 66.3407C150.473 65.1614 149.918 63.4783 149.38 62.5875C148.89 61.7162 148.326 60.1972 148.155 59.2304L147.881 57.5482L146.06 58.7207C144.51 59.7782 144.211 59.8255 144.214 58.9849C144.196 58.4727 144.617 57.0152 145.123 55.7608C146.323 52.6537 147.28 46.8113 147.541 41.3047C147.745 38.0203 148.07 36.2435 148.79 35.0189C149.548 33.6978 149.617 33.3889 148.939 33.6764C148.485 33.8294 147.847 33.7402 147.52 33.4396C146.865 32.8382 146.413 29.2326 146.494 25.5612C146.547 24.1797 146.414 23.3966 146.239 23.8308C146.015 24.2455 145.472 24.7557 144.95 24.9375C144.447 25.071 144.02 25.572 144.009 26.0164C143.998 26.4608 143.736 26.6918 143.447 26.5749C143.157 26.4579 142.819 26.6017 142.702 26.8912C142.585 27.1806 142.932 27.433 143.54 27.4545C144.786 27.5651 145.464 29.9154 144.829 31.9036C144.39 33.1292 145.362 34.1954 145.83 33.0376C146.688 30.9148 146.819 40.452 146.016 46.4688C145.193 52.5339 142.204 61.5964 140.782 62.2002C139.698 62.6602 137.331 59.9079 132.554 52.7026C126.93 44.2576 122.012 33.2352 121.748 28.4708C121.576 25.1463 120.677 22.6504 119.826 22.8117C119.526 22.8589 119.001 23.8813 118.649 25.0299C118.199 26.6999 118.246 26.9996 118.837 26.5089C119.932 25.6044 120.383 26.5722 119.71 28.3767C119.359 29.2451 119.328 29.7378 119.542 29.4873C119.803 29.2563 121.674 33.0988 123.705 38.0722C126.044 43.6748 128.654 48.8822 130.586 51.7392C132.239 54.3151 133.507 56.4549 133.304 56.5411C132.288 56.9724 125.954 50.1482 124.293 46.8959C123.43 45.1441 122.775 44.5427 120.739 43.6081C118.414 42.5565 118.134 42.5555 117 43.5565C116.37 44.1437 115.557 44.4887 115.171 44.3328C114.496 44.0599 111.381 33.9907 110.833 30.3461C110.193 25.5417 107.468 20.0634 106.045 20.6672C105.822 20.8017 106.348 22.4171 107.269 24.3045C108.641 27.1596 108.784 27.7785 108.029 27.9788C106.376 28.3209 105.085 27.3502 104.001 24.8922C103.407 23.5857 101.955 21.484 100.829 20.2433C98.942 18.2463 98.4308 17.9837 96.2292 17.5992C94.8579 17.3819 92.9354 17.2786 92.0076 17.3527C90.6641 17.4833 89.5637 17.151 87.8279 16.169C86.2656 15.3134 85.2135 15.0005 84.8553 15.1925C84.5259 15.4523 85.1716 15.9376 86.7636 16.5808C88.1145 17.1266 89.1851 17.6714 89.1266 17.8161C88.6588 18.974 86.1209 20.8107 85.4455 20.5378C84.7701 20.2649 84.6634 20.3902 84.9221 20.9998C85.3822 22.0836 83.7449 26.136 82.6611 26.5961C82.0515 26.8549 81.993 26.9996 82.5237 27.214C83.1508 27.4674 83.1119 27.5639 82.3288 27.6964C81.8453 27.7817 80.7348 27.6136 79.9146 27.2823C79.0462 26.9314 77.9254 26.9275 77.1609 27.292C75.8349 27.9348 76.2773 28.5064 77.6321 27.9314C78.3094 27.6439 78.5024 27.7218 78.6452 28.3407C78.7397 28.9401 78.9327 29.0181 79.7168 28.6053C81.014 27.8948 82.1811 28.4786 81.3274 29.4805C80.7743 30.1549 80.9088 30.3776 81.7002 30.6413C82.2504 30.8074 82.705 30.6544 82.7255 30.326C82.7172 29.9298 83.1051 29.5253 83.5597 29.3723C84.7205 28.9995 88.6979 29.9891 88.4445 30.6163C88.3471 30.8575 89.5132 31.7215 91.018 32.4418C92.5711 33.1815 94.0072 34.2107 94.305 34.7238C95.0155 36.021 102.984 39.6333 103.971 39.1343C104.552 38.8078 104.109 38.5164 101.947 37.7552C100.412 37.2475 98.6859 36.3816 98.1079 35.8674C96.8945 34.7038 97.2712 34.7437 102.205 35.7271C105.768 36.4931 107.379 37.3683 106.497 38.0222C106.168 38.282 106.92 38.6421 108.735 39.1508C111.409 39.8944 111.534 40.0011 111.828 41.6351C111.998 42.6019 112.314 43.6272 112.496 43.8694C112.66 44.1598 112.454 44.8065 112.076 45.3269C111.484 46.0979 111.57 46.3011 112.42 46.42C113.057 46.5091 113.337 46.7903 113.161 47.2245C113.005 47.6105 113.178 48.0169 113.564 48.1728C114.336 48.4847 115.044 50.3423 114.454 50.5528C113.641 50.8979 98.3532 45.9557 91.638 43.1304C85.0481 40.4118 84.4014 40.2066 82.709 40.6452C81.7032 40.9123 80.6399 41.0439 80.3987 40.9464C80.1575 40.849 79.6916 41.4464 79.3408 42.3148L78.7848 43.8298L80.866 42.7066L82.9186 41.5156L84.3045 43.0857C85.0262 43.9384 85.8342 44.9944 86.0549 45.4203C86.2757 45.8462 86.6227 46.0987 86.8259 46.0124C87.5515 45.7444 89.7824 48.8344 92.3935 53.7615C93.872 56.4914 95.0333 58.7564 94.9943 58.8529C94.9553 58.9494 92.8984 58.6234 90.359 58.1025C87.8484 57.6494 84.7866 57.3102 83.5303 57.3638C82.2546 57.4657 80.7376 57.4701 80.1289 57.4487C79.1241 57.4355 79.1529 57.5033 80.281 58.1835C81.4286 58.8156 81.4954 59.067 80.7771 60.0114C80.2722 60.7054 80.2518 61.0338 80.6674 60.9773C80.9671 60.93 81.3838 60.5933 81.5397 60.2073C81.8516 59.4354 84.2082 59.7141 85.3549 60.6264C85.9328 61.1405 86.368 61.0357 87.0371 60.352C87.6384 59.697 88.6924 59.4495 90.1027 59.5703C92.759 59.8017 96.6381 61.3128 96.7799 62.2119C96.8077 62.5599 95.6644 63.4448 94.1743 64.0774C90.574 65.7655 87.7428 68.606 89.1901 69.1908C89.4313 69.2882 89.654 69.1537 89.6067 68.854C89.464 68.2352 91.5676 66.223 92.0983 66.4374C92.2913 66.5154 92.8239 66.1694 93.3185 65.6397C93.7937 65.1582 94.9452 64.6695 95.8248 64.5759C96.7526 64.5018 97.9319 64.3609 98.4543 64.1792C99.5956 63.8546 102.033 66.0178 101.999 67.351C102.036 67.815 102.43 68.3671 102.961 68.5815C103.443 68.7764 103.655 69.0863 103.393 69.3173C103.151 69.5 103.343 69.8582 103.874 70.0726C105.08 70.5599 108.59 75.3453 108.038 75.7395C107.863 75.8935 106.279 75.9267 104.559 75.7371C99.5947 75.2465 95.1699 75.0862 94.7051 75.4034C94.4629 75.5862 94.9648 75.7328 95.8537 75.7553C96.6943 75.7582 99.2541 75.9506 101.485 76.1226C103.697 76.3429 106.344 76.4583 107.349 76.4715C109.031 76.4773 109.349 76.662 111.909 79.4922C113.42 81.1691 114.497 82.6704 114.284 82.9209C114.09 83.1232 112.785 83.1573 111.318 82.901C109.898 82.6642 108.14 82.5711 107.444 82.6267C106.729 82.7305 104.943 82.2895 103.495 81.7047C101.855 81.042 100.716 80.8062 100.579 81.1439C100.443 81.4816 100.954 81.7442 101.9 81.9021C103.841 82.2373 103.974 83.0205 102.355 84.3869C100.892 85.6476 100.581 86.1393 101.16 86.3732C101.401 86.4706 102.292 85.9326 103.193 85.2304C105.16 83.556 106.831 83.726 113.568 85.9427C117.264 87.2116 118.596 87.8057 118.71 88.3568C118.889 89.4396 117.951 89.6779 113.855 89.5381C111.817 89.4441 109.217 89.6283 108.124 89.9724C107.002 90.2487 104.615 90.4626 102.885 90.4373C101.175 90.3638 99.0199 90.5592 98.1978 90.7882C97.308 91.046 96.3607 91.1684 96.023 91.0319C95.7335 90.915 95.5395 91.1172 95.5868 91.4169C95.6433 91.8326 96.4255 91.9802 97.7597 91.7336C98.939 91.5928 100.272 91.6264 100.803 91.8408C101.334 92.0552 101.749 91.9987 101.702 91.699C101.608 91.0996 104.603 91.1873 116.011 91.9805C116.832 92.0316 116.87 92.2153 116.132 93.208C115.501 94.0754 115.529 94.4234 116.108 94.6573C116.687 94.8912 117.075 94.4867 117.562 93.2806C118.127 91.8815 118.524 91.593 119.694 91.6164C121.751 91.6622 128.031 97.5103 126.734 98.2208C126.26 98.4221 125.968 98.8656 126.103 99.0883C126.218 99.3592 126.614 99.3509 127.011 99.0624C127.563 98.6682 128.065 98.8148 129.819 100.029C131.477 101.204 132.104 101.457 132.898 101.16C133.42 100.978 134.792 100.916 135.971 101.055C137.081 101.223 139.053 101.066 140.339 100.8L142.679 100.286L145.142 103.357L147.673 106.4L146.279 107.072C145.466 107.417 143.281 107.825 141.377 107.953C139.473 108.082 137.994 108.27 138.052 108.405C138.233 108.928 143.143 108.723 145.937 108.056L148.916 107.351L151.255 109.756L153.595 112.16L152.006 116.232C151.09 118.499 149.748 120.988 149.001 121.864C147.779 123.222 147.459 123.318 146.312 122.686C145.579 122.278 144.055 121.606 142.945 121.157C141.16 120.436 140.977 120.194 141.424 119.365C141.687 118.853 141.68 118.177 141.381 117.944C141.15 117.682 140.763 117.807 140.588 118.241C140.081 119.495 139.125 119.221 137.48 117.322C135.882 115.442 135.014 115.091 135.888 116.679C136.137 117.172 136.241 117.888 136.105 118.225C135.793 118.997 136.506 119.454 137.165 118.934C137.455 118.771 138.198 119.015 139.046 119.694C139.789 120.219 141.225 121.248 142.169 121.966C143.798 123.073 143.682 123.083 140.266 121.815C135.113 119.845 132.42 119.15 130.159 119.19C128.246 119.203 128.197 119.183 127.315 117.2C126.098 114.519 125.63 110.121 126.425 109.264C126.793 108.908 127.751 108.621 128.592 108.624C129.452 108.579 130.969 108.574 131.973 108.587C132.95 108.533 133.983 108.614 134.224 108.711C134.514 108.828 134.929 108.771 135.172 108.589C135.414 108.406 134.652 107.93 133.475 107.51C131.796 106.944 130.723 106.96 128.953 107.591C126.273 108.529 125.394 108.342 124.955 106.93C124.496 105.566 123.076 105.329 122.589 106.535C122.296 107.259 121.726 107.421 120.113 107.107C117.245 106.565 109.073 105.957 108.676 106.246C108.105 106.688 111.629 107.27 113.031 106.995C115.835 106.444 125.69 109.416 124.344 110.387C124.101 110.57 124.289 112.329 124.697 114.234C125.135 116.206 125.542 118.672 125.625 119.716C125.868 122.171 130.235 130.669 133.534 135.145C134.111 135.939 134.061 136.2 133.228 136.873C132.279 137.556 132.308 137.624 133.564 137.57C134.724 137.477 135.321 137.943 137.621 140.724C139.074 142.546 140.227 144.135 140.169 144.279C140.091 144.472 138.546 144.129 136.654 143.533C133.875 142.634 133.142 142.226 132.287 140.87C130.777 138.633 129.492 135.981 128.698 133.64C128.115 131.889 126.186 127.911 125.849 127.775C125.029 127.443 125.148 129.231 125.985 130.355C126.581 131.101 127.462 133.365 128.045 135.396C128.627 137.427 129.307 139.217 129.596 139.334C129.818 139.48 130.357 140.09 130.712 140.739C131.308 141.765 131.095 141.736 128.443 140.383C126.764 139.537 125.326 139.068 125.084 139.251C124.309 139.78 126.429 141.478 129.42 142.686C131.881 143.68 132.237 144.049 134.139 147.399C138.623 155.328 143.604 162.447 145.099 163.051C145.919 163.382 149.541 166.641 150.734 168.133C151.023 168.531 152.36 170.081 153.65 171.612C155.007 173.115 156.007 174.529 155.929 174.722C155.754 175.156 153.509 175.989 153.075 175.813C152.882 175.735 152.054 174.728 151.266 173.623C150.141 172.103 149.591 171.656 148.934 171.895C148.411 172.077 147.842 171.959 147.659 171.717C147.496 171.427 146.259 171.432 144.973 171.698C141.811 172.441 141.675 172.498 144.1 172.468C146.362 172.428 150.473 173.92 151.261 175.024C152.501 176.816 147.058 177.648 143.217 176.32C139.377 174.993 139.078 174.76 139.497 173.583L139.946 172.473L138.967 173.368C137.833 174.369 137.379 174.242 135.067 172.186C133.834 171.07 131.259 169.805 126.145 167.739L119.005 164.854L115.809 158.737C114.023 155.378 112.477 152.676 112.274 152.763C111.664 153.021 112.836 157.76 113.884 159.194C114.384 159.901 115.518 161.818 116.372 163.454L117.956 166.339L125.404 169.572C134.396 173.43 136.458 174.992 135.06 177.065C134.555 177.759 134.418 178.377 134.659 178.474C134.948 178.591 135.539 178.101 136.064 177.358C137.064 175.855 137.277 175.884 140.235 178.146C142.047 179.495 142.336 179.892 141.888 180.722C141.558 181.262 141.556 181.822 141.797 181.92C142.087 182.036 142.455 181.68 142.65 181.198C143.098 180.088 147.479 179.108 147.417 180.093C147.425 180.49 147.772 180.742 148.217 180.753C148.661 180.765 149.462 181.144 150.031 181.542C150.85 182.154 151.021 182.84 150.716 184.569L150.38 186.79L151.149 185.025C152.152 182.68 153.397 183.071 154.845 186.293C156.927 190.726 154.45 191.577 149.07 188.225C147.306 187.176 144.365 185.426 142.465 184.434C137.508 181.702 130.326 176.836 129.48 175.596C129.057 174.976 128.122 174.374 127.34 174.227C125.94 173.941 116.074 168.496 113.27 166.409C111.785 165.361 110.443 162.293 109.617 158.087C109.427 157.168 109.14 156.491 108.956 156.529C108.801 156.635 108.893 158.075 109.215 159.777C109.538 161.478 109.63 162.918 109.494 162.976C109.291 163.062 108.076 162.179 106.718 160.956C105.408 159.754 103.818 158.55 103.23 158.2C97.8492 155.128 93.7626 152.186 93.9965 151.607C94.3668 150.691 93.4307 150.369 92.7226 151.149C92.3542 151.505 91.9191 151.61 91.6009 151.425C91.3309 151.26 90.3455 151.199 89.4177 151.273L87.7457 151.383L89.2208 152.316C90.0595 152.879 91.3334 153.337 92.058 153.35C94.6763 153.397 102.505 158.468 105.767 162.2C106.614 163.159 108.04 164.352 108.927 164.935C110.942 166.198 111.171 167.02 109.748 167.624C108.142 168.266 108.613 169.186 110.363 168.882C111.784 168.559 111.861 168.646 112.905 171.201C114.601 175.477 117.308 183.361 118.894 188.604C119.964 192.067 120.865 194.002 122.002 195.079C123.013 196.048 123.368 196.697 122.962 196.869C121.878 197.329 106.979 191.703 104.55 189.936C101.399 187.596 87.6233 181.133 77.8196 177.34C69.8491 174.288 69.1449 173.948 68.8491 172.874C68.5728 171.752 68.5245 171.733 66.8024 172.384C65.8059 172.767 64.5978 172.84 64.1544 172.549C63.6627 172.238 62.8805 172.09 62.4259 172.243C61.8357 172.454 60.6881 171.822 58.4041 170.113C54.7322 167.395 54.0957 167.025 53.8229 167.701C53.7059 167.99 54.1586 168.398 54.7858 168.651C55.4612 168.924 56.0104 169.37 56.0577 169.67C56.2005 170.289 51.1987 169.334 46.0542 167.761C44.1142 167.145 42.3857 166.84 42.3077 167.033C42.2102 167.274 41.5534 167.233 40.7815 166.921C40.0578 166.629 38.0964 166.622 36.4819 166.868C34.3358 167.179 32.8095 167.068 31.0533 166.414C29.683 165.917 28.9686 165.74 29.3925 166.08C29.8647 166.439 29.95 166.922 29.6494 167.25C29.2225 167.751 29.319 167.79 30.2468 167.716C30.8944 167.641 31.6088 167.817 31.7916 168.059C31.9743 168.302 32.3028 168.322 32.6127 168.11C33.407 167.534 38.3829 167.58 39.1733 168.124C39.5491 168.444 40.3989 168.563 41.0856 168.391C42.5553 168.087 50.3766 169.563 54.4783 170.94L57.4314 171.965L53.1114 172.24C50.5794 172.395 47.4304 172.133 45.4996 171.634C41.5417 170.596 39.0496 170.374 37.0287 170.793C35.0756 171.182 31.4364 172.967 29.9535 174.275L28.8195 175.276L30.2717 174.46C31.0753 173.999 32.1981 173.443 32.7882 173.232C33.3301 173.002 34.4816 172.513 35.2944 172.168C36.1267 171.775 37.19 171.643 37.7207 171.858C38.2032 172.053 39.0633 172.007 39.6052 171.777C40.2148 171.519 41.5378 171.716 42.7921 172.223C44.7702 173.022 44.8759 173.177 44.0621 173.803C42.6859 174.986 40.5204 175.346 40.3303 174.427C40.2163 173.876 39.7523 173.913 38.7261 174.509C36.9835 175.488 36.7403 175.951 37.7052 176.341C38.0911 176.497 38.5653 176.296 38.7212 175.91C39.0526 175.09 39.883 175.257 40.0248 176.156C40.2148 177.074 38.502 177.842 36.3086 177.853C33.8832 177.883 34.142 178.493 36.8076 178.841C39.5604 179.111 39.6374 179.198 39.1696 180.356C38.8382 181.176 38.944 181.331 39.6501 181.111C40.3079 180.872 40.5872 181.153 40.844 182.323C41.0053 183.174 41.0312 184.082 40.9142 184.372C40.8168 184.613 40.9123 184.932 41.2017 185.049C42.1184 185.42 42.5613 183.073 41.8406 181.94C41.4176 181.32 41.0745 179.947 41.0876 178.942C41.0062 177.338 41.2104 176.972 42.3444 175.971C44.3988 174.219 47.7057 173.535 49.5093 174.488C51.1393 175.315 51.0882 176.136 49.3909 177.976C48.9835 178.429 49.6609 178.141 50.9971 177.334C53.3113 175.912 54.6743 175.733 61.1867 175.727C63.496 175.706 65.0213 176.098 68.07 177.442C72.7106 179.429 74.5717 180.517 74.1643 180.97C73.7569 181.423 65.2661 183.548 64.7354 183.334C64.4941 183.236 64.5823 182.879 64.883 182.552C66.6091 180.78 66.6583 180.519 65.2451 181.239C64.4127 181.632 63.6277 182.325 63.4523 182.759C63.2573 183.242 62.2506 183.789 61.2448 184.056C58.9817 184.657 58.6903 185.1 59.9622 186.119C60.8871 186.886 60.8871 186.886 59.7848 187.114C59.166 187.257 57.8697 187.687 56.8824 188.186C55.9146 188.637 54.8606 188.884 54.4746 188.728C54.1369 188.592 53.672 188.909 53.4576 189.44C52.9313 190.742 53.7422 190.958 55.2919 189.9C55.9794 189.449 57.0243 189.085 57.6811 189.126C58.338 189.167 59.2566 188.977 59.7697 188.679C60.99 187.881 61.1225 188.664 59.9579 190.158C59.3463 190.977 58.7849 191.255 58.2932 190.945C57.7533 190.614 57.5306 190.749 57.5092 191.357C57.5462 191.821 57.1286 192.438 56.6349 192.688C55.2023 193.456 55.8192 193.873 57.4059 193.28C59.1957 192.6 59.244 192.619 59.1324 194.146C59.071 195.131 59.3327 194.9 60.3536 193.068C62.2979 189.644 66.3474 186.566 69.2664 186.287C70.03 186.202 71.9349 185.794 73.5791 185.335C78.6953 183.923 82.067 184.051 85.4431 185.695C87.025 186.503 88.9538 187.563 89.6959 188.087C90.8816 188.903 91.2777 188.895 92.7012 188.011C94.2313 187.001 94.3955 187.012 97.4339 188.52C103.135 191.216 103.732 191.682 102.879 192.684C102.199 193.532 102.248 193.551 103.621 193.208C105.226 192.846 107.407 193.559 107.81 194.508C107.982 194.914 109.092 195.362 110.704 195.677C113.147 196.159 136.663 205.323 140.752 207.424C142.479 208.29 142.565 208.493 142.164 209.903C141.372 212.557 139.941 212.765 136.093 210.761C132.804 209.039 131.697 207.75 131.81 205.944C131.87 205.239 131.215 204.638 129.441 203.752C128.1 203.042 126.75 202.216 126.394 201.848C126.038 201.479 125.101 201.437 124.095 201.705C122.634 202.125 122.421 202.375 122.64 203.361C122.8 204.492 122.848 204.512 123.943 203.607C124.748 202.866 125.444 202.811 126.602 203.278C128.387 204 131.15 206.744 131.599 208.272C131.905 209.181 131.702 209.267 130.127 209.136C128.785 208.987 129.807 209.512 134.41 211.316L140.479 213.656L143.25 211.52C144.945 210.241 146.426 209.492 147.093 209.649C147.71 209.787 150.211 210.404 152.72 211.138C157.373 212.4 161.47 212.54 168.159 211.539C169.706 211.322 171.407 211.28 171.861 211.407C172.295 211.582 173.978 211.028 175.566 210.154C178.363 208.647 180.268 208.238 180.613 209.051C180.748 209.273 180.224 209.735 179.527 210.071C178.831 210.407 178.327 210.82 178.413 211.024C178.566 211.478 183.555 210.52 183.75 210.037C183.828 209.844 184.381 209.17 184.982 208.515C185.797 207.609 186.049 207.543 186.201 208.278C186.372 208.964 186.537 208.694 186.851 207.362C187.274 205.344 188.196 204.033 188.968 204.345C189.547 204.579 193.657 211.907 193.482 212.342C193.404 212.535 191.496 213.784 189.249 215.177C185.173 217.627 184.465 218.407 184.701 219.906C184.92 220.892 186.043 220.336 189.599 217.507C192.544 215.218 194.055 214.257 194.537 214.452C194.682 214.51 194.222 216.064 193.501 217.849C192.059 221.419 190.089 223.934 185.039 228.516C183.323 230.124 181.926 231.636 181.973 231.936C182.135 232.786 182.755 232.363 186.129 229.013C190.181 225.094 193.413 220.844 194.602 217.901C195.148 216.551 195.809 215.471 196.109 215.423C196.66 215.309 200.681 217.72 200.939 218.329C201.026 218.532 200.316 219.873 199.354 221.28C198.334 222.832 197.595 224.385 197.621 225.014C197.638 225.806 198.191 225.132 199.514 222.692C200.486 220.84 201.7 219.085 202.126 218.865C203.133 218.317 204.214 218.698 204.172 219.635C204.141 220.128 204.334 220.206 205.156 219.977C205.678 219.795 207.233 219.974 208.575 220.404C209.868 220.814 211.345 221.187 211.79 221.198C217.876 221.412 219.353 221.784 221.558 223.966C222.878 225.285 222.925 225.584 222.223 227.321C221.268 229.685 221.933 230.122 223.621 228.167C225.164 226.433 225.714 226.599 229.915 229.812C231.583 231.103 234.166 232.764 235.68 233.6C240.387 236.119 250.954 242.745 252.688 244.287C253.969 245.422 254.276 246.052 253.982 247.055C253.64 248.32 253.504 248.377 251.768 247.676C250.754 247.266 249.345 246.865 248.64 246.805C247.413 246.646 247.394 246.694 248.145 247.335C248.55 247.723 249.39 248.006 250.018 247.979C252.009 247.773 251.927 249.087 249.783 251.476C247.474 254.135 239.672 261.084 238.889 261.216C238.222 261.34 237.153 257.597 237.133 255.007C237.082 252.91 236.536 251.623 236.107 252.685C236.019 253.042 236.178 254.453 236.521 255.826C237.722 260.633 237.749 261.261 236.373 262.444C234.25 264.225 227.736 267.709 227.012 267.417C226.626 267.261 225.404 265.701 224.212 263.929C223.088 262.128 221.608 259.958 220.954 259.077C220.3 258.195 219.31 256.617 218.734 255.542C217.937 254.042 217.205 253.353 215.613 252.71C213.828 251.989 213.395 251.533 212.581 249.521C210.847 245.06 209.199 244.001 206.333 245.538C205.326 246.085 205.2 246.258 205.613 247.042C205.882 247.488 206.133 247.701 206.23 247.46C206.327 247.219 207.054 246.671 207.79 246.238L209.126 245.431L209.99 247.183C211.092 249.593 210.257 250.827 208.018 249.978C207.082 249.656 205.914 249.353 205.47 249.341C205.025 249.33 203.779 249.22 202.746 249.139C198.786 248.661 193.095 248.719 192.291 249.18C191.846 249.449 191.227 249.592 190.889 249.455C190.6 249.338 190.222 249.578 190.066 249.964C189.735 250.785 190.448 251.241 191.175 250.693C191.794 250.27 196.27 249.609 197.825 249.788C198.859 249.869 198.926 250.121 198.573 251.55L198.123 253.22L198.775 251.744C199.155 250.943 199.931 250.134 200.453 249.952C201.749 249.522 208.112 250.858 211.827 252.359C215.706 253.87 217.479 255.316 218.995 258.229L220.243 260.698L218.514 260.392C216.429 259.998 215.741 260.45 216.296 261.853C216.747 262.821 216.844 262.86 217.426 262.253C218.328 261.271 221.251 262.508 221.391 263.967C221.617 265.63 220.122 270.301 218.977 271.747C217.686 273.414 216.703 272.792 214.783 269.21C213.737 267.216 212.996 266.412 212.146 266.293C210.967 266.154 210.492 266.635 211.069 267.429C211.252 267.672 211.181 268.541 210.85 269.361C210.285 270.76 210.333 270.78 212.938 271.832C215.784 272.982 215.948 273.273 214.148 274.117C213.518 274.424 213.266 274.771 213.507 274.868C213.797 274.985 214.416 274.842 214.909 274.593C216.971 273.518 216.859 275.044 214.697 277.201C214.329 277.557 214.221 277.963 214.511 278.079C214.752 278.177 215.624 277.407 216.449 276.337C217.274 275.268 218.205 274.353 218.505 274.306C219.288 274.173 229.368 279.088 229.192 279.522C229.114 279.715 225.897 279.762 221.984 279.584C212.429 279.203 205.927 279.045 203.618 279.066C202.594 279.101 201.676 279.011 201.618 278.875C201.503 278.604 208.061 276.82 209.114 276.853C209.442 276.873 209.684 276.691 209.569 276.42C209.436 275.917 206.613 276.236 205.307 276.83C204.9 277.003 203.604 277.433 202.347 277.767C197.84 278.92 196.421 278.683 184.667 274.44C178.587 272.264 172.14 270.164 170.306 269.704C168.452 269.291 165.701 268.461 164.206 267.856C162.71 267.252 161.213 266.928 160.971 267.111C160.109 267.717 161.287 268.136 170.09 270.515C177.128 272.404 181.103 273.954 183.957 275.78C185.017 276.489 186.851 277.23 188.058 277.437C191.901 278.204 197.132 279.7 197.015 279.99C196.957 280.135 196.366 280.625 195.698 281.029C195.01 281.481 194.564 282.03 194.679 282.301C194.794 282.572 195.142 282.544 195.375 282.245C197.305 280.107 202.514 279.854 221.303 280.992L230.896 281.557L234.019 283.548C236.902 285.442 238.947 286.213 241.893 286.561C242.647 286.641 243.225 287.155 243.57 287.968C244.087 289.187 243.979 289.593 241.334 294.473C239.506 297.887 238.253 299.738 237.75 299.871C236.6 300.08 234.882 299.33 233.061 297.865C231.741 296.826 230.621 296.542 224.787 295.981C218.055 295.281 211.775 295.269 212.033 295.878C212.12 296.082 213.134 296.211 214.371 296.205C216.187 296.154 223.19 296.738 223.721 296.953C223.818 296.992 223.872 297.968 223.868 299.089C223.931 300.461 223.55 301.822 222.763 303.075C222.043 304.3 221.789 305.207 222.049 305.537C222.52 306.176 224.831 300.039 224.721 298.367C224.685 297.623 225.13 297.354 226.522 297.243C228.629 297.028 230.048 297.545 234.533 299.918C237.561 301.59 237.686 301.697 238.795 305.063C239.436 306.95 240.385 309.185 240.942 310.028C241.826 311.451 242.019 311.529 244.27 311.653C245.584 311.735 247.389 312.127 248.315 312.614C249.752 313.363 249.935 313.605 249.449 314.531C249.118 315.071 249.116 315.631 249.358 315.729C249.647 315.846 250.016 315.489 250.249 314.91C250.873 313.367 252.164 314.618 252.349 316.937L252.535 318.976L253.081 317.626ZM243.68 286.722C243.403 285.88 243.616 285.63 245.126 284.949L246.955 284.173L246.429 285.475C245.376 288.081 244.225 288.569 243.68 286.722ZM234.574 282.313C234.527 282.014 235.049 281.832 235.735 281.941C236.421 282.049 237.406 282.111 237.899 282.141C238.575 282.134 238.661 282.337 238.186 282.819C237.41 283.628 238.038 283.881 239.875 283.501C241.364 283.149 242.404 284.186 241.367 284.946C240.68 285.398 234.707 283.097 234.574 282.313ZM230.916 278.31C229.608 276.827 227.175 270.625 227.526 269.757C227.857 268.937 230.869 266.899 236.01 264.037C240.569 261.502 246.982 256.742 247.731 255.305C248.422 254.012 252.813 249.95 253.664 249.789C254.031 249.713 254.349 249.897 254.329 250.226C254.308 250.554 254.489 251.357 254.68 251.995C255.082 253.224 255.199 252.934 255.178 250.625C255.181 249.784 258.003 249.466 258.165 250.316C258.212 250.616 257.988 251.031 257.746 251.214C257.484 251.445 257.503 251.677 257.792 251.793C258.082 251.91 258.556 251.709 258.857 251.382C259.72 250.496 260.276 251.618 259.538 252.611C259.072 253.209 259.091 253.441 259.7 253.462C260.753 253.495 263.063 256.111 262.317 256.428C261.998 256.523 260.337 256.469 258.646 256.347C254.956 256.035 253.39 256.3 253.561 257.267C253.731 258.234 255.391 258.848 256.542 258.359C257.065 258.178 259.094 258.156 261.026 258.375C263.952 258.772 264.743 259.035 265.32 259.83C265.715 260.382 267.169 261.643 268.461 262.614C269.8 263.604 271.062 264.787 271.283 265.213C272.271 267.071 268.209 273.792 263.984 277.304C261.969 278.959 258.119 280.153 254.582 280.296C252.997 280.329 251.648 279.503 251.979 278.683C252.096 278.393 252.424 278.414 252.752 278.714C253.128 279.035 253.746 278.892 254.318 278.449C254.996 277.882 255.142 277.66 254.678 277.697C254.311 277.773 254.003 277.424 254.014 276.98C254.029 275.414 253.187 275.692 250.958 277.877C249.222 279.533 248.216 280.08 246.476 280.219C243.509 280.48 238.119 279.93 237.464 279.328C237.136 279.028 235.967 279.004 234.846 279.28C232.302 279.88 232.254 279.861 230.916 278.31ZM219.552 273.102C219.475 273.014 220.236 271.133 221.229 268.953L223.011 264.959L225.781 271.297L228.532 277.684L224.085 275.494C221.655 274.288 219.61 273.237 219.552 273.102ZM212.074 270.361C211.371 269.459 211.677 267.731 212.595 267.541C212.895 267.494 213.395 268.201 213.672 269.042C213.978 269.952 214.488 270.775 214.777 270.892C215.018 270.989 215.017 271.269 214.775 271.452C214.136 271.923 213.026 271.475 212.074 270.361ZM268.532 275.494C268.728 274.731 269.272 273.941 269.726 273.788C270.316 273.577 270.365 273.597 269.928 273.981C269.619 274.193 269.55 274.502 269.839 274.619C270.129 274.736 270.798 274.052 271.381 273.165C274.48 268.132 274.286 268.334 276.401 268.796C278.969 269.385 280.087 270.229 279.678 271.242C279.132 272.593 275.559 274.629 273.288 274.834C272.109 274.975 271.451 275.214 271.817 275.418C272.252 275.593 272.928 275.586 273.402 275.385C273.876 275.184 274.137 275.233 274.059 275.426C273.728 276.246 269.529 277.748 268.864 277.311C268.449 277.088 268.317 276.305 268.532 275.494ZM63.0284 187.975C63.5415 187.678 64.0054 187.641 64.0917 187.844C64.1974 187.999 63.829 188.355 63.3159 188.653C62.8027 188.95 62.3388 188.987 62.2526 188.784C62.1468 188.629 62.5152 188.273 63.0284 187.975ZM61.2984 185.312C61.3959 185.071 61.6863 184.908 61.9757 185.025C62.217 185.122 62.3607 185.461 62.2633 185.702C62.1463 185.991 61.8271 186.087 61.5859 185.99C61.2965 185.873 61.1814 185.602 61.2984 185.312ZM64.943 184.764C66.2402 184.054 75.6599 181.574 76.2388 181.808C77.2037 182.198 76.0205 183.46 74.6872 183.426C73.9143 183.394 73.2082 183.614 73.1108 183.855C73.0133 184.097 71.1854 184.593 69.0486 185.02C66.9312 185.399 64.8714 185.914 64.5419 186.174C64.0771 186.491 63.9323 186.432 63.963 185.94C64.003 185.563 64.4299 185.062 64.943 184.764ZM282.46 271.3C282.558 271.059 282.896 270.915 283.186 271.032C283.427 271.13 283.426 271.41 283.184 271.593C282.922 271.824 282.603 271.919 282.458 271.861C282.362 271.822 282.343 271.59 282.46 271.3ZM346.676 293.485C348.286 291.723 352.896 288.647 356.845 286.65C359.246 285.432 361.667 283.884 362.239 283.162C363.345 281.813 363.326 281.861 363.042 285.619C362.839 288.623 362.369 290.341 360.879 293.612C358.503 298.937 358.184 299.033 351.024 296.196C346.49 294.364 346.094 294.092 346.676 293.485ZM50.7602 173.198C51.3123 172.804 62.0926 173.624 62.2938 174.098C62.5814 174.775 61.9819 174.87 57.8272 174.875C54.3487 174.872 49.8786 173.852 50.7602 173.198ZM78.0628 182.433C78.4692 182.26 78.9424 182.339 79.0574 182.61C79.1724 182.881 78.8912 183.16 78.4078 183.246C77.9244 183.331 77.4512 183.252 77.4132 183.068C77.3075 182.913 77.6564 182.605 78.0628 182.433ZM89.1988 186.539C88.2934 185.725 88.7676 185.523 90.9887 185.86C92.8332 186.156 93.4779 186.921 92.3357 187.526C91.4644 188.016 90.4123 187.703 89.1988 186.539ZM78.9594 180.214C78.7294 179.672 78.9233 179.47 79.648 179.482C80.3244 179.474 80.6713 179.727 80.6601 180.171C80.6294 180.664 80.8224 180.742 81.5285 180.522C82.0992 180.36 83.4407 180.79 85.659 181.967C87.4625 182.92 88.8124 183.746 88.6769 183.803C87.1867 184.436 79.5345 181.568 78.9594 180.214ZM73.2861 177.865C73.5005 177.335 77.6042 178.151 77.8435 178.809C78.1792 179.506 76.343 179.606 74.6545 178.923C73.8344 178.592 73.1887 178.107 73.2861 177.865ZM68.7142 175.569C69.525 175.785 70.6829 176.252 71.3676 176.641C72.1005 177.05 71.4343 176.893 69.987 176.308C68.5397 175.723 67.9515 175.373 68.7142 175.569ZM136.634 202.337C128.545 200.135 122.927 195.845 120.878 190.359C119.27 186.006 117.156 179.708 117.034 178.761C116.977 178.345 117.434 177.632 118.141 177.132C119.623 176.103 119.315 175.754 117.593 176.405C116.461 176.846 116.278 176.604 114.543 172.704C113.497 170.43 112.896 168.447 113.147 168.38C113.37 168.245 115.579 169.306 118.019 170.629C121.172 172.408 122.29 173.252 121.922 173.609C121.601 173.984 122.045 174.276 123.599 174.735C124.863 175.078 128.258 176.954 131.729 179.199C135.026 181.316 139.085 183.91 140.753 184.921C144.754 187.379 143.825 187.734 138.227 186.033C134.472 184.909 133.487 184.847 131.127 185.409C129.638 185.762 128.208 185.969 127.87 185.833C127.58 185.716 127.386 185.918 127.434 186.218C127.51 186.585 127.828 186.77 128.176 186.742C128.592 186.686 128.484 187.091 127.833 188.007C126.561 189.906 127.363 190.005 129.321 188.215C130.997 186.704 133.86 186.008 135.645 186.729C138.539 187.899 143.319 188.988 144.469 188.779C145.455 188.561 146.459 188.854 148.243 189.855C151.734 191.771 160.097 193.297 163.018 192.457C166.606 191.494 168.149 192.118 171.874 196.372C173.693 198.398 175.185 200.123 175.242 200.259C175.425 200.501 172.907 202.289 171.339 203.115C170.196 203.719 167.702 206.977 168.232 207.191C168.377 207.25 169.695 206.211 171.149 204.834C172.632 203.525 174.463 202.188 175.188 201.92C176.456 201.422 176.552 201.461 177.522 203.088C178.109 203.998 178.531 204.898 178.453 205.091C178.238 205.622 173.701 207.268 169.881 208.25C160.732 210.615 152.455 209.571 142.626 204.87C140.176 203.712 137.445 202.553 136.634 202.337ZM67.3311 173.159C67.4286 172.917 67.719 172.754 68.0085 172.871C68.2497 172.969 68.3935 173.307 68.296 173.548C68.1791 173.838 67.8599 173.933 67.6187 173.836C67.3292 173.719 67.2142 173.448 67.3311 173.159ZM255.129 247.968C255.082 247.668 255.315 247.369 255.682 247.293C256.533 247.132 258.113 248.5 257.541 248.942C256.921 249.365 255.281 248.702 255.129 247.968ZM197.629 214.578C195.663 213.055 195.878 212.244 198.274 212.426C199.163 212.448 200.603 212.357 201.521 212.167C203.262 211.747 208.126 213.32 208.615 214.471C208.807 214.83 209.828 215.635 210.976 216.267C215.152 218.572 216.897 219.67 216.799 219.911C216.663 220.248 214.584 220.811 214.082 220.665C213.889 220.587 213.88 220.19 214.036 219.805C214.446 218.791 213.78 218.635 212.656 219.471C212.016 219.942 210.992 219.978 209.795 219.606C204.458 217.955 199.219 215.782 197.629 214.578ZM192.494 207.285C189.752 201.294 191.592 200.074 195.952 204.978C198.618 207.963 199.049 208.979 197.457 208.336C196.54 207.966 195.08 208.386 194.787 209.109C194.69 209.351 195.047 209.439 195.57 209.257C196.846 208.875 197.105 209.484 196.164 210.563C195.058 211.912 194.307 211.272 192.494 207.285ZM269.344 236.258C269.004 234.044 268.556 229.598 268.268 226.283L267.806 220.203L271.21 210.804C273.434 204.744 274.828 201.435 275.165 201.571C275.648 201.766 277.309 207.376 277.523 209.763C277.608 210.527 276.902 213.384 275.955 216.145C275.028 218.856 274.372 221.453 274.448 221.821C274.572 222.208 274.173 223.057 273.533 223.808C272.592 224.887 272.464 225.341 272.809 226.153C273.088 226.715 273.005 228.309 272.643 229.622C272.329 230.954 271.836 233.841 271.48 236.111C270.578 242.649 270.346 242.667 269.344 236.258ZM273.169 236.793C273.753 232.708 274.114 231.675 274.192 234.12C274.244 235.937 273.163 241.112 272.856 240.483C272.818 240.299 272.921 238.657 273.169 236.793ZM180.911 201.09C180.817 200.49 183.716 200.259 183.975 200.869C184.205 201.41 182.357 202.235 181.633 201.943C181.295 201.806 180.958 201.39 180.911 201.09ZM175.807 196.222C172.206 192.634 163.803 180.373 163.732 178.604C163.652 176.72 164.745 176.376 166.76 177.639C167.599 178.202 168.504 179.017 168.705 179.491C168.907 179.965 169.754 180.925 170.553 181.584C173.607 184.165 180.087 190.768 181.173 192.385C182.096 193.712 182.2 194.427 181.674 195.73C181.109 197.129 181.147 197.313 181.988 197.035C182.511 196.854 183.16 196.218 183.413 195.591C183.706 194.867 184.171 194.55 184.653 194.745C185.908 195.252 189.242 197.834 189.105 198.171C188.599 199.426 181.822 200.223 179.468 199.384C178.985 199.189 177.309 197.782 175.807 196.222ZM156.617 188.019C156.283 186.762 155.491 184.141 154.85 182.255C154.209 180.368 153.829 178.531 153.965 178.193C154.121 177.807 155.098 177.473 156.19 177.409L158.191 177.319L161.181 181.446C164.989 186.744 166.747 189.755 166.263 190.121C166.02 190.303 164.928 190.367 163.779 190.296C162.697 190.195 161.073 190.325 160.251 190.554C158.085 191.194 157.294 190.65 156.617 188.019ZM149.099 179.819C148.54 179.537 151.471 178.533 152.098 178.786C152.339 178.883 152.569 179.706 152.643 180.633L152.801 182.325L151.191 181.169C150.324 180.538 149.341 179.917 149.099 179.819ZM187.947 192.148C187.369 191.633 187.024 190.821 187.219 190.338C187.473 189.711 187.347 189.604 186.738 189.863C185.112 190.553 184.699 189.769 185.49 187.395L186.281 185.021L184.401 186.618L182.492 188.148L179.219 184.861C177.37 183.048 175.55 181.302 175.126 180.963C174.027 180.07 174.483 179.637 176.454 179.759C177.912 179.9 178.048 179.842 177.15 179.424C176.543 179.122 175.529 178.993 174.9 179.02C173.721 179.16 171.882 177.463 170.72 175.198C170 173.785 170.166 173.515 172.789 172.162C175.238 170.962 174.88 170.874 170.828 171.875L168.353 172.446L165.751 170.553C164.334 169.475 162.147 167.526 160.876 166.226C158.739 164.016 158.423 163.271 157.463 158.562C156.884 155.69 156.104 152.064 155.704 150.556C155.303 149.047 155.154 147.471 155.329 147.037C155.524 146.555 157.317 145.034 159.322 143.544C161.376 142.072 164.728 139.33 166.822 137.482C170.66 134.095 172.75 133.087 173.858 134.096C174.311 134.503 174.124 135.382 173.044 137.639C171.788 140.331 171.748 140.707 172.52 141.019C173.244 141.312 173.438 141.109 173.664 139.854C173.831 139.024 174.464 137.596 175.144 136.748C176.134 135.408 176.242 135.003 175.753 133.851C175.206 132.564 175.158 132.545 172.887 132.75C171.128 132.937 169.937 133.522 167.447 135.658C165.673 137.131 163.949 138.342 163.505 138.331C163.109 138.339 162.585 138.801 162.371 139.332C161.942 140.393 155.596 145.405 154.969 145.152C154.583 144.996 150.641 133.639 150.233 131.454C150.12 130.622 150.251 129.048 150.584 127.947L151.219 125.959L154.837 127.421L158.455 128.883L157.917 130.91C157.417 132.841 157.446 132.909 158.454 132.081C159.025 131.639 159.462 130.974 159.415 130.674C159.368 130.374 159.649 130.095 159.949 130.048C160.384 129.943 160.424 129.566 160.001 128.946C159.511 128.075 159.56 127.814 160.374 127.189C161.633 126.295 161.75 126.005 161.123 125.752C160.882 125.654 160.33 126.049 159.864 126.646C159.107 127.687 158.942 127.677 155.035 126.098L151.03 124.48L151.365 122.819C151.571 121.893 152.371 119.634 153.228 117.792C154.6 114.811 154.833 114.512 155.663 114.96C156.174 115.222 161.02 119.201 166.434 123.857C176.53 132.482 183.828 139.976 185.007 142.753C189.98 154.752 191.001 158.475 191.221 164.737C191.359 169.675 190.672 169.847 188.571 165.463C187.583 163.324 186.268 160.884 185.711 160.042C183.981 157.379 178.803 151.302 178.417 151.427C177.72 151.762 178.324 152.905 180.787 155.976C183.347 159.087 186.835 164.761 187.763 167.325C188.175 168.389 188.115 168.814 187.506 169.073C186.964 169.303 187.029 170.114 187.968 172.234C189.607 176.095 190.742 180.369 190.19 180.764C189.948 180.946 188.857 180.73 187.727 180.33C186.28 179.745 185.884 179.753 186.51 180.287C187.117 180.869 186.817 180.916 184.992 180.572L182.665 180.08L184.941 181.393C186.166 182.112 187.488 182.59 187.807 182.494C188.919 182.102 189.401 182.577 188.645 183.338C188.131 183.916 188.159 183.984 188.837 183.696C189.311 183.495 189.862 183.381 190.103 183.478C190.779 183.751 189.713 187.361 188.744 188.092C188.26 188.458 188.056 188.824 188.297 188.922C188.586 189.039 189.021 188.934 189.331 188.722C189.68 188.414 189.987 189.043 190.109 190.271C190.493 193.625 189.989 194.039 187.947 192.148ZM191.406 189.56C191.297 187.608 191.283 185.975 191.486 185.889C191.689 185.803 191.862 186.209 191.86 186.77C191.858 187.33 192.017 188.741 192.274 189.911C192.683 191.816 192.532 193.439 191.954 193.205C191.809 193.147 191.563 191.532 191.406 189.56ZM161.371 176.808C162.012 176.057 163.131 176.341 162.8 177.161C162.625 177.595 162.15 177.797 161.716 177.621C161.282 177.446 161.138 177.107 161.371 176.808ZM158.496 172.953C157.853 171.627 158.047 168.507 158.744 168.171C158.928 168.133 160.18 169.2 161.576 170.606L164.022 173.165L161.836 173.853C159.263 174.666 159.263 174.666 158.496 172.953ZM151.377 166.541C148.529 163.314 147.991 162.423 147.325 159.348C146.887 157.376 146.777 155.704 147.048 155.589C147.319 155.474 148.446 156.434 149.485 157.752C150.572 159.089 152.429 161.298 153.642 162.742C155.288 164.642 155.902 165.9 156.079 167.543C156.413 171.718 155.94 171.64 151.377 166.541ZM143.469 159.586C142.641 158.578 141.113 156.389 140.114 154.695L138.327 151.616L140.508 152.329C144.369 153.608 145.563 154.82 145.918 158.107C146.474 162.428 146.115 162.62 143.469 159.586ZM153.11 157.252C153.054 156.837 153.382 156.857 154.067 157.246C154.655 157.596 155.058 158.264 154.96 158.785C154.793 159.616 154.677 159.625 153.984 158.84C153.57 158.336 153.186 157.62 153.11 157.252ZM136.127 148.034C135.503 146.94 135.062 145.808 135.14 145.615C135.237 145.373 136.464 145.532 137.845 145.865C140.084 146.434 140.701 146.851 142.279 148.78C143.289 150.029 144.318 151.511 144.529 152.101C144.863 153.079 144.554 153.01 141.081 151.606C137.607 150.203 137.135 149.844 136.127 148.034ZM150.551 154.142C149.974 153.347 149.562 152.283 149.728 151.733C149.846 151.163 150.062 150.072 150.162 149.271C150.409 147.687 151.779 145.547 152.358 145.78C153.033 146.053 154.778 155.625 154.274 156.039C153.431 156.596 151.753 155.75 150.551 154.142ZM148.24 148.887C149.388 146.601 150.403 146.73 149.467 149.046C148.882 150.493 148.475 150.946 148.099 150.626C147.849 150.412 147.9 149.591 148.24 148.887ZM146.794 145.104C147.088 141.182 146.378 139.885 145.594 142.936C145.31 144.056 144.824 144.981 144.572 145.048C143.605 145.219 139.048 138.72 139.418 137.803C139.867 136.693 142.359 136.915 142.964 138.057C143.261 138.57 143.898 138.939 144.671 138.971C145.376 139.031 146.11 139.159 146.36 139.373C146.582 139.519 147.721 139.754 148.871 139.826C150.726 139.958 150.947 140.104 151.648 141.565C152.07 142.465 152.288 143.452 152.132 143.838C151.821 144.609 147.226 148.758 146.84 148.602C146.696 148.544 146.662 146.959 146.794 145.104ZM134.2 132.384C131.211 127.977 129.312 123.787 130.001 123.055C130.408 122.602 130.312 122.283 129.589 121.99C129.01 121.756 128.654 121.388 128.732 121.195C128.985 120.568 131.036 119.937 132.446 120.058C133.576 120.178 133.633 120.313 132.974 121.113C132.314 121.913 132.343 121.981 133.319 121.926C135.377 121.692 141.683 122.892 141.97 123.57C142.114 123.908 141.812 124.516 141.202 125.055C140.378 125.844 140.426 125.864 141.743 125.105C143.214 124.241 145.523 124.5 145.654 125.563C145.768 126.114 142.832 131.438 141.23 133.596C138.677 136.998 137.161 136.723 134.2 132.384ZM148.056 138.094C148.086 137.601 148.312 136.626 148.585 135.951L149.111 134.648L150.012 136.864C150.836 138.712 150.844 139.108 150.061 139.241C148.727 139.487 148.042 139.099 148.056 138.094ZM140.934 135.441C141.07 135.103 141.895 134.034 142.778 133.099C143.922 131.934 144.726 131.473 145.305 131.707C146.559 132.214 146.774 131.403 145.656 130.558C144.885 129.966 144.906 129.638 145.644 128.645C146.906 126.91 147.118 126.94 147.788 128.894C149.347 133.509 145.747 137.835 141.54 136.303C141.086 136.176 140.798 135.779 140.934 135.441ZM145.673 136.907C145.915 136.724 146.35 136.619 146.64 136.736C146.881 136.834 146.977 137.153 146.879 137.394C146.762 137.683 146.347 137.74 145.912 137.565C145.526 137.409 145.411 137.138 145.673 136.907ZM149.104 125.498C149.694 125.287 150.163 126.487 149.852 127.259C149.511 127.963 149.463 127.944 149.167 126.87C148.995 126.183 148.949 125.603 149.104 125.498ZM149.325 123.006C149.598 122.33 150.064 121.733 150.412 121.705C150.779 121.629 150.758 122.238 150.427 123.058C150.095 123.878 149.581 124.456 149.34 124.358C149.05 124.241 149.072 123.633 149.325 123.006ZM110.886 90.3588C111.1 89.8281 114.192 89.9547 115.523 90.5488C116.247 90.8411 115.889 91.0331 114.236 91.095C111.656 91.231 110.632 90.9859 110.886 90.3588ZM124.358 92.4345C120.449 88.2179 116.919 83.761 117.153 83.1821C117.231 82.9891 118.089 83.5042 119.062 84.2902C123.157 87.6282 125.356 88.8533 131.917 91.5042C138.478 94.1551 138.844 94.3592 140.094 96.267C141.651 98.5238 141.389 99.0349 138.662 99.6729C136.96 99.9955 136.13 99.8283 132.261 98.153C128.199 96.3997 127.602 95.9339 124.358 92.4345ZM111.653 83.5978C114.831 83.9277 116.607 84.5329 116.353 85.1601C116.12 85.739 114.507 85.4242 111.4 84.225L108.968 83.2986L111.653 83.5978ZM138.961 88.514C137.426 85.3684 135.481 80.5981 134.688 77.9769C132.348 70.2969 131.243 68.4476 125.18 61.5084C121.378 57.1665 119.493 54.6091 119.602 53.9235C119.652 53.3826 119.345 52.7535 118.911 52.578C117.898 52.1687 115.057 46.6997 115.408 45.8313C115.564 45.4453 116.445 44.7913 117.365 44.3211C119 43.4668 119.049 43.4863 119.943 44.7455C120.549 45.6075 120.992 45.8989 121.245 45.552C121.759 44.974 125.107 49.1887 125.372 50.7549C125.495 51.4221 125.87 52.0224 126.256 52.1783C127.462 52.6656 136.084 60.0775 138.037 62.3259C139.067 63.5276 139.912 65.0475 139.92 65.7239C139.927 66.4003 139.853 68.1103 139.781 69.5401C139.724 72.0424 140.109 75.1163 142.126 86.9306C143.101 92.7121 143.161 94.925 142.341 94.5936C142.052 94.4766 140.525 91.7273 138.961 88.514ZM120.638 83.8609C114.481 78.9601 112.46 76.7404 112.986 75.4378C113.181 74.9554 113.349 73.8448 113.371 72.9559L113.338 71.3712L112.261 72.7878C111.688 73.5105 110.962 74.0587 110.624 73.9223C110.286 73.7859 109.131 72.4774 108.015 71.0725C105.957 68.389 105.63 68.0883 100.689 63.5106C97.6643 60.7173 95.3564 57.5401 92.6591 52.4097C91.7473 50.6384 90.5758 48.5376 89.9895 47.6273C89.1343 46.2716 89.1065 45.9237 89.911 45.1825C90.7351 44.393 91.2277 44.4237 95.078 45.8671C97.4327 46.7062 101.245 47.9659 103.61 48.6408C105.994 49.2674 109.835 50.5948 112.199 51.5499C116.348 53.2262 116.425 53.3134 115.37 53.8412C113.706 54.6277 113.597 55.3134 115.251 54.691C116.432 54.27 116.673 54.3675 117.355 55.3167C117.778 55.9366 119.982 58.6786 122.301 61.4115C128.94 69.4252 129.987 71.139 132.378 78.2781C133.631 81.9831 135.248 86.4527 136.015 88.1656C136.831 89.8979 137.376 91.4651 137.318 91.6099C137.162 91.9958 134.363 91.1455 129.596 89.3318C126.421 88.1613 124.801 87.1701 120.638 83.8609ZM145.271 91.2316C145.188 90.1878 145.372 89.8696 146.369 89.4865C148.091 88.8355 150.139 89.0455 149.807 89.8656C149.456 90.734 146.454 92.888 145.875 92.6541C145.634 92.5566 145.394 91.8987 145.271 91.2316ZM143.867 83.5935C141.561 71.6623 141.506 70.6862 143.098 71.3294C143.581 71.5243 145.146 71.5394 146.577 71.3318C149.187 70.9834 150.626 71.1719 150.333 71.8956C150.236 72.1368 150.559 73.8385 151.083 75.7341C152.505 80.9663 152.676 84.571 151.617 86.2196C150.014 88.6586 149.715 88.7058 144.993 87.7522C144.8 87.6743 144.304 85.8464 143.867 83.5935ZM151.828 86.8097C152.573 86.4934 152.57 87.334 151.814 88.0947C151.125 88.8267 151.077 88.8072 151.263 87.9286C151.362 87.4071 151.624 86.8959 151.828 86.8097ZM83.3817 58.4262C83.4792 58.185 83.7214 58.0022 83.9144 58.0802C84.1556 58.1776 84.8412 58.2863 85.4786 58.3755C86.1838 58.4359 86.6272 58.7273 86.5103 59.0168C86.3153 59.4992 85.2428 59.5148 83.7852 59.0943C83.4958 58.9773 83.2648 58.7156 83.3817 58.4262ZM142.082 69.1229C141.662 67.6624 142.57 64.7186 144.055 62.8492C145.161 61.5003 145.587 61.2796 145.817 61.8215C146.076 62.4311 146.414 62.5675 147.255 62.2903C148.165 61.9842 148.367 62.1782 148.912 63.7453C149.228 64.7706 149.271 66.1911 148.959 66.963C148.647 67.7349 148.528 68.5848 148.759 68.8465C148.942 69.0887 149.281 68.9449 149.476 68.4625C149.768 67.7388 149.884 67.7296 150.017 68.5127C150.414 70.862 142.76 71.4732 142.082 69.1229ZM85.6573 43.071C85.1266 42.8566 84.7704 42.4882 84.8873 42.1987C84.9848 41.9575 86.2883 42.2036 87.7356 42.7884C90.5821 43.9384 90.659 44.0256 89.2542 45.1416C88.4013 45.8633 88.3049 45.8243 87.5164 44.72C87.0164 44.013 86.2362 43.3049 85.6573 43.071ZM93.9517 33.5148C93.7104 33.4173 93.5954 33.1464 93.7124 32.8569C93.9658 32.2297 96.7157 33.3408 96.8195 34.0561C96.9428 34.7233 95.7347 34.7964 94.9833 34.1561C94.6363 33.9036 94.1929 33.6122 93.9517 33.5148ZM99.6995 33.8729C99.6819 33.3607 100.652 32.3495 101.804 31.5805L103.906 30.1288L104.382 32.2852C104.619 33.5034 104.76 34.6827 104.662 34.9239C104.565 35.1652 103.589 35.2197 102.459 35.0999C99.6576 34.81 99.6576 34.81 99.6995 33.8729ZM87.4455 28.922L84.3097 27.655L84.9446 25.6668C85.8729 22.6747 87.5146 20.1392 89.1505 19.2849C90.5155 18.5456 90.6314 18.5364 93.0992 20.2068C94.4583 21.1488 96.3954 22.6048 97.3008 23.4196C98.2545 24.2539 100.057 25.4872 101.33 26.226C102.622 26.9165 103.672 27.7897 103.681 28.1859C103.63 29.007 99.4899 33.0025 98.4554 33.2019C98.0202 33.3066 97.3253 33.082 96.8336 32.7711C96.3419 32.4602 95.0198 31.9822 93.861 31.7946C92.7217 31.5587 91.4961 31.1197 91.1686 30.819C90.8606 30.4701 89.1823 29.6237 87.4455 28.922ZM106.747 35.5979C105.94 34.2617 104.701 29.2716 105.013 28.4997C105.344 27.6796 108.499 29.1785 108.968 30.3783C109.658 32.0039 110.666 36.7323 110.432 37.3112C110.12 38.0831 107.67 36.9248 106.747 35.5979ZM97.7574 22.7062C94.5392 20.1152 94.0689 19.1957 95.8291 18.7283C97.7535 18.2712 101.732 21.6185 102.843 24.7046C103.35 26.0881 103.35 26.0881 101.999 25.5423C101.275 25.2499 99.328 23.9581 97.7574 22.7062Z" fill="#8189A6"/>
<path d="M178.091 136.536C178.208 136.246 177.948 135.917 177.562 135.761C177.177 135.605 176.8 135.565 176.761 135.662C176.722 135.758 176.982 136.088 177.29 136.437C177.617 136.737 177.994 136.777 178.091 136.536Z" fill="#8189A6"/>
</svg>
