<svg width="135" height="23" viewBox="0 0 135 23" fill="none" xmlns="http://www.w3.org/2000/svg">
<path d="M107.686 0.143122C108.396 0.403187 108.792 1.0389 108.792 1.87689C108.792 2.87863 108.219 3.90926 107.495 4.21748C107.277 4.30417 107.304 4.26564 107.577 4.06337C108.751 3.17722 108.669 0.875156 107.454 0.547667C106.212 0.210545 102.403 1.55903 100.451 3.03274C99.3038 3.89963 98.9215 4.44865 98.9762 5.20959C99.0171 5.73935 99.0581 5.8164 99.3721 5.92236C99.5632 5.98978 100.887 6.17279 102.307 6.3269C103.741 6.48102 105.666 6.74108 106.594 6.8952C108.068 7.14563 108.669 7.18416 111.099 7.24195C114.526 7.31901 114.819 8.62435 118.505 9C121.331 9.28896 124.91 10.9326 125.005 11C125.101 11.0674 129 13 130.99 12.5685C132.519 13.4932 134.533 12.9326 134.505 13C134.464 13.0771 129.311 14.1637 128.505 14C126.294 13.5377 119.444 13.8784 117.001 13.5413C112.714 12.9441 108.828 13.0578 104.501 13L102.69 13.5413L101.829 14.1963C100.724 15.0439 100.314 15.6315 100.314 16.4117C100.314 17.0955 100.023 17.2583 100.501 18C101.634 19.7338 102.243 20.5342 105.001 19.5036C105.97 19.1375 108.628 18.2996 108.942 17.8372C109.57 16.8933 110.034 16.8355 107.754 16.036C107.222 15.853 106.662 15.67 106.485 15.6315C106.307 15.5929 106.198 15.5448 106.225 15.5255C106.335 15.4485 107.986 15.8723 108.942 16.2287C110.157 16.6814 110.282 17.3065 110.501 18C110.664 18.5201 107.41 19.4124 107.001 20C105.006 21 106.092 20.26 103.501 21C102.927 21.1637 105.929 21.5 105.001 21.5C103.936 21.5096 102.99 20.9879 102.307 20.7664C101.147 20.3811 100.751 19.5788 100.001 18.5C98.7036 16.6025 98.7577 15.4196 99.3721 14.1963C99.3721 13.7243 98.4983 14.0711 98.4574 14.0518C98.3482 13.9748 96.3003 14.3504 94.2389 14.832C92.0956 15.3232 88.7098 16.4309 86.43 17.3749C84.9419 17.9817 82.2251 19.2724 80.2456 20.3127C78.3889 21.2759 75.5766 22.2487 73.7199 22.5569C71.4674 22.9326 70.6619 23 68.2728 23C60.5731 23 52.5319 21.0832 36.3544 15.3714C21.6923 10.1894 15.7945 8.61933 10.9617 8.61933C9.66476 8.61933 9.22787 8.66749 7.88998 8.92756C6.18349 9.27431 4.06744 9.8715 3.19373 10.2568C2.47017 10.5843 1.22783 11.4223 0.982101 11.7401C0.886536 11.875 0.709061 12.2795 0.586197 12.6166C0.381424 13.1946 0.367783 13.3005 0.572556 13.8592C0.695419 14.1963 1.02306 14.8127 1.30975 15.2173C1.62375 15.67 1.73297 15.9012 1.58279 15.8145C1.2688 15.6026 0.2995 14.1963 0.0947266 13.628C-0.0827484 13.0982 -0.0144806 12.4914 0.340469 11.7305C0.654465 11.0562 2.06062 9.97746 3.43947 9.37064C4.57257 8.8794 7.2074 8.06067 8.61354 7.77171C10.006 7.48275 13.0368 7.41533 15.0709 7.62723C18.9754 8.03178 24.1086 9.17799 31.781 11.3452C32.9414 11.6727 33.979 11.9617 34.0609 11.9906C34.1837 12.0291 34.1701 11.9039 34.0199 11.5378C33.8015 10.9985 33.5557 9.70776 33.6786 9.70776C33.7196 9.71739 34.1018 10.0738 34.5114 10.5072C35.2895 11.3259 36.9414 12.5492 37.8698 13.0019C38.3203 13.2235 40.5865 13.9073 44.177 14.8994L44.9142 15.1017L44.5866 14.832C44.4227 14.6779 43.9176 14.2541 43.4807 13.8881C43.0439 13.5221 42.4432 12.8863 42.1428 12.4625C41.665 11.7787 41.6104 11.6342 41.6104 10.9696C41.6104 9.55364 42.293 8.95646 45.7879 7.30937C49.7333 5.44075 51.904 4.8243 54.2112 4.91099C55.1532 4.93989 55.4672 4.99768 56.1908 5.27701C57.8017 5.88383 59.085 7.21305 59.5628 8.78308C60.4365 11.5764 58.457 15.0728 55.7129 15.6411C54.73 15.8434 54.2795 15.7567 52.8324 15.0536C52.2317 14.7646 51.1122 14.283 50.334 13.9844C48.6958 13.3679 48.4364 13.2138 48.0132 12.6552C47.631 12.1447 47.7129 11.8653 48.4091 11.3259C49.0234 10.8443 50.8392 9.8715 51.7402 9.55364C52.6549 9.22615 52.7505 9.26468 51.8631 9.61144C50.4706 10.1508 48.6412 11.2682 48.2316 11.8268C47.7811 12.4529 48.3545 12.9056 50.6753 13.7243C51.6583 14.0711 52.7232 14.4853 53.0508 14.6394C53.3648 14.7935 53.9109 15.0054 54.2385 15.1113C55.0986 15.381 55.7539 15.2462 56.6276 14.6297C57.9246 13.7147 58.6754 12.2121 58.6754 10.5361C58.6754 9.42843 58.457 8.71565 57.87 7.89693C56.9826 6.67366 55.8358 6.04757 54.3204 5.97052C52.3682 5.8742 50.3613 6.55807 46.3204 8.70602C43.8767 10.0064 43.3852 10.4783 43.7265 11.1911C44.1906 12.135 45.6787 13.2909 49.2282 15.4485L51.4535 16.8066L53.4604 17.2497C56.0815 17.8276 57.6788 18.1262 59.7676 18.4248C61.283 18.6463 64.696 18.9834 64.7779 18.916C64.7915 18.9064 64.5185 18.6078 64.1499 18.261C63.4946 17.6253 62.4843 16.3346 62.2932 15.8723C62.1976 15.67 62.3069 15.7085 62.9895 16.1323C64.9007 17.2882 68.696 18.8101 69.6516 18.7908C70.4981 18.7715 73.8019 18.0395 73.6244 17.9046C73.5834 17.8854 73.0237 17.7024 72.3547 17.5097C70.1977 16.8836 69.1601 16.2672 68.3683 15.1113C67.8359 14.36 67.3991 12.9345 67.3171 11.7209C67.2489 10.854 67.2898 10.5939 67.5356 10.0352C68.2318 8.44596 69.8564 7.6465 72.6278 7.52128C74.7848 7.42496 77.5562 8.06067 78.2934 8.83124C79.1807 9.75592 78.6074 11.0851 76.6824 12.5685C75.9998 13.0886 75.9998 13.0116 76.6824 12.3758C78.0067 11.1237 78.4981 9.89077 77.9248 9.24542C77.133 8.34964 73.6244 7.98362 71.4401 8.56154C69.7745 8.99498 68.9144 9.99672 69.1056 11.297C69.2557 12.3469 70.0339 13.9651 70.6892 14.6008C71.2353 15.1402 72.3821 15.5063 74.8121 15.9301L76.8053 16.2768L78.2251 15.4677C80.1637 14.3311 82.5255 13.1368 84.6279 12.2025L86.389 11.4126L85.1194 10.9214C84.4231 10.6517 83.4538 10.2375 82.9624 10.0064C82.0204 9.55364 80.6142 8.74455 80.6825 8.68676C80.7098 8.66749 81.1876 8.74455 81.7473 8.8505C83.8361 9.23579 85.8839 9.42843 88.3685 9.48622C91.2901 9.54401 92.0546 9.47659 94.2389 8.93719C95.1399 8.71565 96.7918 8.37853 97.8976 8.17626L99.9181 7.81987L99.14 7.59834C97.5154 7.11673 96.983 6.57734 96.983 5.37333C96.9693 4.68945 97.0376 4.46792 97.3243 4.02484C97.843 3.24464 98.6485 2.58003 99.9045 1.91542C102.553 0.50914 106.335 -0.357746 107.686 0.143122Z" fill="#848DAC"/>
</svg>
